<svg xmlns="http://www.w3.org/2000/svg" width="204.947" height="35.342" viewBox="0 0 204.947 35.342"><defs><style>.a{fill:#464648;}.b{fill:#0050a0;}.c{fill:#7ab62d;}</style></defs><g transform="translate(-117.705 -20.658)"><g transform="translate(162.511 29.712)"><path class="a" d="M3929.092,1187.4c-.6,1.062-1.144,1.408-1.944,1.228a1.6,1.6,0,0,1-.208-3.079,1.563,1.563,0,0,1,1.856.635c.1.14.2.278.295.417Z" transform="translate(-3768.951 -1162.395)"/><path class="a" d="M1768.26,761.5v-10.8c1.238,0,2.384-.009,3.529.016.1,0,.255.206.293.342a2.276,2.276,0,0,1,.018.6q0,10.016,0,20.032c0,1.138.114,1.305,1.078,1.671v3.22a4.6,4.6,0,0,1-3.238-.223c-1.163-.651-1.067-1.824-1.1-2.937l-.2-.112a1.441,1.441,0,0,1-.114.31,7.932,7.932,0,0,1-11.951,1.154,9.866,9.866,0,0,1-3.09-8.3,10.279,10.279,0,0,1,1.806-5.278,7.554,7.554,0,0,1,12.6-.128C1767.962,761.158,1768.051,761.246,1768.26,761.5Zm.018,6.012a11.056,11.056,0,0,1,.007-1.263,3.74,3.74,0,0,0-1.166-3.062,8.231,8.231,0,0,0-1.389-1.228,4.879,4.879,0,0,0-6.739.93,6.873,6.873,0,0,0-1.485,5.855,5.753,5.753,0,0,0,6.55,4.824,4.95,4.95,0,0,0,4.221-5.058Z" transform="translate(-1711.605 -750.665)"/><path class="a" d="M963.409,782.962l1.768-3.281c.2.145.362.272.532.394a13.248,13.248,0,0,0,9.819,2.631,3.234,3.234,0,0,0,3.115-2.619,2.549,2.549,0,0,0-1.136-2.838,15.686,15.686,0,0,0-3.076-1.362c-1.908-.638-3.863-1.136-5.774-1.767a8.139,8.139,0,0,1-1.994-1.038,5.346,5.346,0,0,1-2.248-5.412c.409-3.586,2.618-5.9,6.342-6.624a13.8,13.8,0,0,1,10.913,2.409c.054.038.1.083.2.159l-1.738,3.151a10.685,10.685,0,0,0-7.511-2.467,7.278,7.278,0,0,0-1.885.344,3.2,3.2,0,0,0-2.294,3.657,2.37,2.37,0,0,0,1.47,2c1.285.526,2.619.935,3.943,1.356,1.454.463,2.935.844,4.378,1.338a9.8,9.8,0,0,1,2.08,1.02c2.125,1.358,2.757,3.406,2.574,5.807-.263,3.446-2.583,5.594-6.074,6.244a16.765,16.765,0,0,1-12.972-2.748C963.695,783.217,963.569,783.095,963.409,782.962Z" transform="translate(-963.409 -760.21)"/><path class="a" d="M2204.965,761.239c.243-.337.374-.528.513-.711a7.682,7.682,0,0,1,7.827-3.137,5.12,5.12,0,0,1,4.048,4.34,15.693,15.693,0,0,1,.278,2.705c.032,3.683.017,7.366.015,11.049,0,.173-.021.346-.034.56h-3.778c0-.27,0-.508,0-.746,0-3.284.013-6.568-.016-9.851a9.048,9.048,0,0,0-.267-2.1,3.277,3.277,0,0,0-4.432-2.5,6.252,6.252,0,0,0-4.047,3.851,2.9,2.9,0,0,0-.142,1.044c-.01,3.128-.006,6.257-.006,9.385v.906h-3.757c-.018-.262-.05-.519-.05-.775,0-8.077,0-16.153-.017-24.229,0-.669.169-.906.856-.847a15.761,15.761,0,0,0,2.261,0c.559-.033.72.164.717.713-.021,3.15-.011,6.3-.009,9.452C2204.926,760.586,2204.945,760.82,2204.965,761.239Z" transform="translate(-2135.536 -750.175)"/><path class="a" d="M1373.485,888.277l-1.121-2.311c.05-.082.07-.157.118-.189a12.31,12.31,0,0,1,10.061-1.951c3.336.827,5.135,3.261,5.2,6.955.038,2.305.007,4.612.015,6.918,0,.919.138,1.087,1.049,1.387v3.222a4.876,4.876,0,0,1-3.125-.137c-1.1-.543-1.146-1.633-1.232-2.684l-.181-.123a4.742,4.742,0,0,1-.451.614,8.216,8.216,0,0,1-8.638,2.305,5.563,5.563,0,0,1-3.722-6.973,5.359,5.359,0,0,1,2.831-3.2,11.487,11.487,0,0,1,7.779-.731c.581.116,1.149.3,1.72.445a4.262,4.262,0,0,0-3.865-5.626,9.14,9.14,0,0,0-5.021,1.25C1374.453,887.7,1374.021,887.963,1373.485,888.277Zm10.442,7.366c0-1.675,0-1.675-1.452-2.05-.214-.056-.429-.114-.647-.149a8.324,8.324,0,0,0-5.087.368,2.952,2.952,0,0,0-1.888,3.125,3.21,3.21,0,0,0,2.451,2.754,5.868,5.868,0,0,0,4.661-.766C1383.2,898.143,1384.247,897.167,1383.928,895.643Z" transform="translate(-1349.599 -876.403)"/><path class="a" d="M2591.578,899.38c0,.944-.016,1.852.007,2.759.01.376-.163.54-.5.551a12.44,12.44,0,0,1-1.923,0,2.08,2.08,0,0,1-1.838-1.9c-.047-.348-.092-.7-.156-1.18-.237.262-.393.435-.55.608a8.42,8.42,0,0,1-9,2.239,5.424,5.424,0,0,1-3.6-4.773,5.131,5.131,0,0,1,3.03-5.3,10.058,10.058,0,0,1,6.005-.987c1.18.133,2.342.415,3.513.63.6-3.487-1.228-5.418-4.024-5.554a8.913,8.913,0,0,0-4.768,1.194c-.485.264-.959.55-1.527.877l-1.167-2.393a12.832,12.832,0,0,1,8.435-2.353,10.92,10.92,0,0,1,1.7.268,6.543,6.543,0,0,1,5.249,6.57c.045,2.416.009,4.833.019,7.25C2590.5,898.853,2590.639,899.043,2591.578,899.38Zm-4.9-3.385c0-1.789,0-1.79-1.56-2.162-.172-.041-.345-.083-.52-.111a8.391,8.391,0,0,0-5.026.339,3,3,0,0,0-1.978,3.016,3.236,3.236,0,0,0,2.535,2.9,5.912,5.912,0,0,0,4.875-.957C2586.08,898.265,2587,897.344,2586.676,896Z" transform="translate(-2488.679 -876.681)"/><path class="a" d="M3001.871,902h-3.8v-.78c0-3.129.016-6.257-.011-9.386a12.783,12.783,0,0,0-.239-2.441,3.124,3.124,0,0,0-4.292-2.612,6.319,6.319,0,0,0-4.267,3.971,2.5,2.5,0,0,0-.121.912q-.012,4.759,0,9.519v.813h-3.771V883.535c1.039,0,2.091-.016,3.143.025.107,0,.282.35.288.542a26.317,26.317,0,0,0,.152,2.889c.139-.18.281-.357.417-.54a8.755,8.755,0,0,1,8.621-3.074c2.261.583,3.207,2.283,3.627,4.386a10.71,10.71,0,0,1,.244,2.044C3001.882,893.843,3001.871,897.88,3001.871,902Z" transform="translate(-2878.26 -876.117)"/><path class="a" d="M3810.264,1191.739a1.316,1.316,0,0,1,1.3-1.311,1.342,1.342,0,0,1,.006,2.683A1.313,1.313,0,0,1,3810.264,1191.739Z" transform="translate(-3659.459 -1167.107)"/><path class="a" d="M3696.753,1196.741a1.08,1.08,0,0,1-1.07,1.043,1.015,1.015,0,0,1-1.023-1.061,1.043,1.043,0,0,1,1.042-1.054A1.107,1.107,0,0,1,3696.753,1196.741Z" transform="translate(-3549.979 -1172.069)"/><path class="a" d="M3580.686,1202.008c-.059.665-.26.978-.748,1a.687.687,0,0,1-.8-.7c-.036-.517.265-.859.736-.808C3580.191,1201.531,3580.474,1201.865,3580.686,1202.008Z" transform="translate(-3440.578 -1177.585)"/><path class="a" d="M3465.366,1207.5c-.374.256-.56.482-.744.481-.16,0-.462-.279-.445-.4a.709.709,0,0,1,.416-.51C3464.754,1207.034,3464.976,1207.268,3465.366,1207.5Z" transform="translate(-3331.705 -1182.864)"/></g><g transform="translate(117.706 20.658)"><path class="b" d="M153.847,810.963l-.962,1.674a37.468,37.468,0,0,1-.785-23.563,37.436,37.436,0,0,0,.453,4.063,9.761,9.761,0,0,0,4.937,6.408,35.347,35.347,0,0,0,8.234,3.118c2.94.869,5.886,1.725,8.8,2.671a10.482,10.482,0,0,1,2.337,1.266,5.349,5.349,0,0,1-.759,9.274A12.072,12.072,0,0,1,172.4,816.9a25.484,25.484,0,0,1-16.078-4.078c-.7-.434-1.318-1-1.974-1.5C154.2,811.214,154.046,811.108,153.847,810.963Z" transform="translate(-150.571 -782.14)"/><path class="c" d="M357.562,654.009s5.045,7.816,3.126,21.884c0,0-.924-5.9-12.079-8.6s-14.992-3.695-14.637-9.592,12.505-8.384,21.955-.711Z" transform="translate(-324.661 -652.19)"/></g></g></svg>