<svg xmlns="http://www.w3.org/2000/svg" xmlns:xlink="http://www.w3.org/1999/xlink" width="37.757" height="37.757" viewBox="0 0 37.757 37.757"><defs><style>.a{fill:none;}.b{clip-path:url(#a);}.c{fill:#f7d211;}.d{fill:#fff;}</style><clipPath id="a"><rect class="a" width="37.757" height="37.757"/></clipPath></defs><g class="b"><circle class="c" cx="18.879" cy="18.879" r="18.879"/><g transform="translate(11.75 11.837)"><g transform="translate(0 0)"><path class="d" d="M-25.944,1479.423a2.365,2.365,0,0,1-2.469,2.246h0a2.365,2.365,0,0,1-2.469-2.246V1467.97a2.364,2.364,0,0,1,2.469-2.245h0a2.364,2.364,0,0,1,2.469,2.245v11.453Z" transform="translate(30.881 -1465.725)"/><path class="d" d="M-16.507,1479.423a2.365,2.365,0,0,1-2.469,2.246h0a2.365,2.365,0,0,1-2.469-2.246V1467.97a2.364,2.364,0,0,1,2.469-2.245h0a2.364,2.364,0,0,1,2.469,2.245v11.453Z" transform="translate(30.322 -1465.725)"/></g></g></g></svg>