<svg xmlns="http://www.w3.org/2000/svg" width="24" height="24" viewBox="0 0 24 24"><defs><style>.a{fill:rgba(0,0,0,0);}.a,.b{fill-rule:evenodd;}.b{fill:#424242;}</style></defs><g transform="translate(4 2)"><g transform="translate(-444 -4100)"><g transform="translate(100 4044)"><g transform="translate(340 54)"><path class="a" d="M0,0H24V24H0Z"/><path class="b" d="M12,22a2.006,2.006,0,0,0,2-2H10A2,2,0,0,0,12,22Zm6-6V11c0-3.07-1.64-5.64-4.5-6.32V4a1.5,1.5,0,0,0-3,0v.68C7.63,5.36,6,7.92,6,11v5L4.71,17.29A1,1,0,0,0,5.41,19H18.58a1,1,0,0,0,.71-1.71Z"/></g></g></g></g></svg>