<svg xmlns="http://www.w3.org/2000/svg" xmlns:xlink="http://www.w3.org/1999/xlink" width="21.476" height="21.029" viewBox="0 0 21.476 21.029"><defs><style>.a{fill:none;}.b{clip-path:url(#a);}.c{fill:#424242;}</style><clipPath id="a"><rect class="a" width="21.476" height="21.029"/></clipPath></defs><g class="b"><path class="c" d="M35.386,19.43H33.111v-.447a.693.693,0,1,0-1.386,0v.447H23.81v-.447a.693.693,0,1,0-1.386,0v.447H20.09A3.09,3.09,0,0,0,17,22.516V36.233a3.09,3.09,0,0,0,3.09,3.086h15.3a3.09,3.09,0,0,0,3.09-3.086V22.516A3.09,3.09,0,0,0,35.386,19.43Zm-17,3.086a1.7,1.7,0,0,1,1.7-1.7h2.335v.45a.693.693,0,1,0,1.386,0v-.45h7.918v.45a.693.693,0,1,0,1.386,0v-.45h2.276a1.7,1.7,0,0,1,1.7,1.7v2.56H18.386Zm17,15.418H20.09a1.7,1.7,0,0,1-1.7-1.7V26.458H37.091v9.775a1.7,1.7,0,0,1-1.7,1.7Z" transform="translate(-17 -18.29)"/><rect class="c" width="2.649" height="2.649" transform="translate(3.166 9.692)"/><rect class="c" width="2.649" height="2.649" transform="translate(11.631 9.692)"/><rect class="c" width="2.649" height="2.649" transform="translate(15.863 9.692)"/><rect class="c" width="2.649" height="2.649" transform="translate(7.399 9.692)"/><rect class="c" width="2.649" height="2.649" transform="translate(3.166 13.91)"/><rect class="c" width="2.649" height="2.649" transform="translate(11.631 13.91)"/><rect class="c" width="2.649" height="2.649" transform="translate(15.863 13.91)"/><rect class="c" width="2.649" height="2.649" transform="translate(7.399 13.91)"/></g></svg>