<svg xmlns="http://www.w3.org/2000/svg" xmlns:xlink="http://www.w3.org/1999/xlink" width="27.382" height="32.946" viewBox="0 0 27.382 32.946"><defs><style>.a{fill:none;}.b{clip-path:url(#a);}.c{fill:#fff;}</style><clipPath id="a"><rect class="a" width="27.382" height="32.946"/></clipPath></defs><g class="b"><path class="c" d="M32.88,14.188h-.255a3.709,3.709,0,0,1-3.354-2.135,3.706,3.706,0,0,1-6.685.056,3.705,3.705,0,0,1-6.685-.056,3.709,3.709,0,0,1-3.354,2.135H12.29A3.518,3.518,0,0,1,9.41,9.216l3.5-7.786A1.916,1.916,0,0,1,14.657.3H30.52a1.916,1.916,0,0,1,1.747,1.13L35.76,9.2A3.52,3.52,0,0,1,32.88,14.188Zm-20.331,1.69h-.371a5.146,5.146,0,0,1-.776-.113v8.863H10.166a1.541,1.541,0,0,0,0,3.079H26.284a3.315,3.315,0,0,1-.626-1.574l-.2-1.5H14.484V15.51A5.343,5.343,0,0,1,12.549,15.878Zm18.041,3.815A2.091,2.091,0,1,0,28.5,17.6h0A2.1,2.1,0,0,0,30.589,19.693ZM27.4,20.85a1.79,1.79,0,0,0-.444,1.4l.481,3.666a1.531,1.531,0,0,0,.918,1.243l.8,5.4a.776.776,0,0,0,.772.689h1.286A.776.776,0,0,0,32,32.56l.8-5.4a1.544,1.544,0,0,0,.958-1.25l.481-3.669h0a1.79,1.79,0,0,0-1.58-1.978,1.771,1.771,0,0,0-.2-.011h-.65a.216.216,0,0,0-.169.08L30.626,21.6c-.036.043-.07.043-.106,0l-1.014-1.266a.216.216,0,0,0-.169-.083h-.6A1.79,1.79,0,0,0,27.4,20.85Zm-9.36-2.32h7.02a1.1,1.1,0,0,0,0-2.194H18.041a1.1,1.1,0,0,0,0,2.2Zm0,3.785h5.83a1.1,1.1,0,1,0,0-2.194H18.041a1.1,1.1,0,0,0,0,2.194Z" transform="translate(-8.696 -0.3)"/></g></svg>