<svg xmlns="http://www.w3.org/2000/svg" xmlns:xlink="http://www.w3.org/1999/xlink" width="24" height="24" viewBox="0 0 24 24"><defs><style>.a{fill:none;}.b{clip-path:url(#a);}.c{fill:#101010;fill-rule:evenodd;}</style><clipPath id="a"><rect class="a" width="24" height="24"/></clipPath></defs><g class="b"><path class="c" d="M12,24A12,12,0,1,1,24,12,12,12,0,0,1,12,24ZM12,2A10,10,0,1,0,22,12,10,10,0,0,0,12,2Zm2.23,13.7L11.3,12.761a1.006,1.006,0,0,1-.3-.774V7a1,1,0,0,1,2,0v4.531l2.7,2.7A1.039,1.039,0,0,1,14.23,15.7Z"/></g></svg>