<svg xmlns="http://www.w3.org/2000/svg" xmlns:xlink="http://www.w3.org/1999/xlink" width="30.206" height="30.206" viewBox="0 0 30.206 30.206"><defs><style>.a{fill:none;}.b{clip-path:url(#a);}.c{fill:#b4271b;}.d{fill:#fff;}</style><clipPath id="a"><rect class="a" width="30.206" height="30.206"/></clipPath></defs><g class="b"><circle class="c" cx="15.103" cy="15.103" r="15.103"/><g transform="translate(12.586 6.869)"><path class="d" d="M319.049,1195.175a1.529,1.529,0,0,0-1.049,1.573,1.752,1.752,0,0,0,1.748,1.748,1.652,1.652,0,0,0,1.748-1.748A1.7,1.7,0,0,0,319.049,1195.175Z" transform="translate(-318 -1181.014)"/><path class="d" d="M319.748,1187a1.652,1.652,0,0,0-1.748,1.748v8.742a1.748,1.748,0,0,0,3.5,0v-8.742A1.652,1.652,0,0,0,319.748,1187Z" transform="translate(-318 -1187)"/></g></g></svg>