<svg xmlns="http://www.w3.org/2000/svg" xmlns:xlink="http://www.w3.org/1999/xlink" width="24" height="24" viewBox="0 0 24 24"><defs><style>.a,.c{fill:none;}.b{clip-path:url(#a);}.c,.d{fill-rule:evenodd;}.d{fill:#fff;}</style><clipPath id="a"><rect class="a" width="24" height="24"/></clipPath></defs><g class="b"><path class="c" d="M0,0H24V24H0Z"/><path class="d" d="M4,13h6a1,1,0,0,0,1-1V4a1,1,0,0,0-1-1H4A1,1,0,0,0,3,4v8A1,1,0,0,0,4,13Zm0,8h6a1,1,0,0,0,1-1V16a1,1,0,0,0-1-1H4a1,1,0,0,0-1,1v4A1,1,0,0,0,4,21Zm10,0h6a1,1,0,0,0,1-1V12a1,1,0,0,0-1-1H14a1,1,0,0,0-1,1v8A1,1,0,0,0,14,21ZM13,4V8a1,1,0,0,0,1,1h6a1,1,0,0,0,1-1V4a1,1,0,0,0-1-1H14A1,1,0,0,0,13,4Z"/></g></svg>