<svg xmlns="http://www.w3.org/2000/svg" xmlns:xlink="http://www.w3.org/1999/xlink" width="20" height="20" viewBox="0 0 20 20"><defs><style>.a{fill:none;}.b{clip-path:url(#a);}.c{fill:#424242;}</style><clipPath id="a"><rect class="a" width="20" height="20"/></clipPath></defs><g class="b"><path class="c" d="M26,21v5H6V21a1,1,0,0,1,2,0v3H24V21a1,1,0,0,1,2,0ZM10.485,17.857,16,21.166l5.515-3.309a1,1,0,0,0-1.03-1.714L17,18.234V7a1,1,0,0,0-2,0V18.234l-3.485-2.091a1,1,0,0,0-1.03,1.714Z" transform="translate(-6 -6)"/></g></svg>