<svg xmlns="http://www.w3.org/2000/svg" xmlns:xlink="http://www.w3.org/1999/xlink" width="25" height="21.409" viewBox="0 0 25 21.409"><defs><style>.a{fill:none;}.b{clip-path:url(#a);}.c{fill:#fff;}</style><clipPath id="a"><rect class="a" width="25" height="21.409"/></clipPath></defs><g class="b"><path class="c" d="M-307.008,346.364c.252.023.336.185.371.384a3.209,3.209,0,0,1-.245,1.887,4.308,4.308,0,0,1-.789,1.207.313.313,0,0,0-.081.122,4.488,4.488,0,0,1-1.027,1.954l2.051,1.059a6.117,6.117,0,0,0-1.1,3.89,6.6,6.6,0,0,0,1.477,3.815c-.464.044-.9.09-1.331.125a37.032,37.032,0,0,1-4.428.139,42.1,42.1,0,0,1-7.385-.862,3.307,3.307,0,0,1-.631-.206.735.735,0,0,1-.508-.857,8.241,8.241,0,0,1,1.231-3.658,3.5,3.5,0,0,1,1.5-1.286c.824-.373,1.65-.74,2.474-1.112a15.115,15.115,0,0,0,2.048-1.064c-.063-.083-.12-.161-.18-.237a4.608,4.608,0,0,1-.793-1.62.613.613,0,0,0-.126-.225,3.773,3.773,0,0,1-1.052-2.707,1.639,1.639,0,0,1,.077-.473.453.453,0,0,1,.222-.242.15.15,0,0,0,.111-.167c.007-.583,0-1.167.026-1.75a3.581,3.581,0,0,1,1.245-2.7,3.633,3.633,0,0,1,1.876-.8,5.582,5.582,0,0,1,2.394.125,3.308,3.308,0,0,1,2.5,2.911,18.258,18.258,0,0,1,.076,2.062C-307.006,346.169-307.008,346.258-307.008,346.364Z" transform="translate(320.642 -340.91)"/><path class="c" d="M-213.295,426.994a5.75,5.75,0,0,1-5.749-5.709,5.746,5.746,0,0,1,5.719-5.789,5.742,5.742,0,0,1,5.782,5.776A5.747,5.747,0,0,1-213.295,426.994Zm.538-8.235h0c0,.389,0,.777,0,1.166a.222.222,0,0,0,.125.223,1.221,1.221,0,0,1,.621,1.073.236.236,0,0,0,.141.231q.976.557,1.947,1.122a.7.7,0,0,0,1.115-.524,4.316,4.316,0,0,0-.032-1.753,4.468,4.468,0,0,0-2.98-3.351.674.674,0,0,0-.934.665C-212.76,417.992-212.757,418.376-212.757,418.759Zm-.554,7.042a4.527,4.527,0,0,0,3.025-1.14.682.682,0,0,0-.112-1.126c-.681-.4-1.365-.785-2.045-1.182a.178.178,0,0,0-.208,0,1.242,1.242,0,0,1-1.269.005.208.208,0,0,0-.239,0c-.665.389-1.334.773-2,1.159a.687.687,0,0,0-.114,1.166A4.524,4.524,0,0,0-213.311,425.8Zm-.518-7.044c0-.361,0-.722,0-1.083a1.011,1.011,0,0,0-.039-.311.7.7,0,0,0-1.009-.383,4.505,4.505,0,0,0-2.613,2.512,4.45,4.45,0,0,0-.271,2.627.69.69,0,0,0,1.061.478c.672-.389,1.346-.775,2.015-1.17a.248.248,0,0,0,.105-.174,1.265,1.265,0,0,1,.632-1.1.222.222,0,0,0,.121-.225C-213.833,419.534-213.83,419.145-213.829,418.757Zm1.084,2.493a.555.555,0,0,0-.552-.552.553.553,0,0,0-.542.544.551.551,0,0,0,.551.55A.551.551,0,0,0-212.745,421.25Z" transform="translate(232.543 -405.585)"/></g></svg>