<svg xmlns="http://www.w3.org/2000/svg" xmlns:xlink="http://www.w3.org/1999/xlink" width="37.757" height="37.757" viewBox="0 0 37.757 37.757"><defs><style>.a{fill:none;}.b{clip-path:url(#a);}.c{fill:#03397a;}.d{fill:#fff;}</style><clipPath id="a"><rect class="a" width="37.757" height="37.757"/></clipPath></defs><g class="b"><circle class="c" cx="18.879" cy="18.879" r="18.879"/><g transform="translate(10.045 12.453)"><path class="d" d="M212.518,1479.835a.422.422,0,0,0-.416.428v5.177l-7.665-5.528a.406.406,0,0,0-.431-.029.43.43,0,0,0-.224.38v5.177l-7.665-5.528a.406.406,0,0,0-.431-.029.43.43,0,0,0-.224.38v12a.432.432,0,0,0,.224.38.412.412,0,0,0,.192.048.406.406,0,0,0,.239-.078l7.665-5.527v5.176a.432.432,0,0,0,.224.38.41.41,0,0,0,.192.048.406.406,0,0,0,.239-.078l7.665-5.527v5.176a.416.416,0,1,0,.832,0v-12A.422.422,0,0,0,212.518,1479.835Z" transform="translate(-195.462 -1479.835)"/></g></g></svg>