<svg xmlns="http://www.w3.org/2000/svg" xmlns:xlink="http://www.w3.org/1999/xlink" width="23.919" height="23.919" viewBox="0 0 23.919 23.919"><defs><style>.a{fill:none;}.b{clip-path:url(#a);}.c{fill:#c11313;}</style><clipPath id="a"><rect class="a" width="23.919" height="23.919"/></clipPath></defs><g class="b"><path class="c" d="M11.959,0A11.959,11.959,0,1,0,23.919,11.959,11.96,11.96,0,0,0,11.959,0Zm0,21.677a9.717,9.717,0,1,1,9.717-9.717A9.717,9.717,0,0,1,11.959,21.677Zm0-16.432c-.857,0-1.5.447-1.5,1.169v6.623c0,.723.648,1.168,1.5,1.168.836,0,1.5-.464,1.5-1.168V6.414C13.465,5.709,12.8,5.245,11.96,5.245Zm0,10.452a1.493,1.493,0,1,0,1.492,1.493A1.495,1.495,0,0,0,11.96,15.7Z"/></g></svg>