<svg xmlns="http://www.w3.org/2000/svg" xmlns:xlink="http://www.w3.org/1999/xlink" width="22" height="19.663" viewBox="0 0 22 19.663"><defs><style>.a{fill:none;}.b{clip-path:url(#a);}.c{fill:#fff;}</style><clipPath id="a"><rect class="a" width="22" height="19.663"/></clipPath></defs><g class="b"><path class="c" d="M19.444,24.288H33.056a1.444,1.444,0,0,0,0-2.888H19.444a1.444,1.444,0,0,0,0,2.888Z" transform="translate(-18 -21.4)"/><path class="c" d="M38.556,45.8H19.444a1.444,1.444,0,0,0,0,2.888H38.556a1.444,1.444,0,0,0,0-2.888Z" transform="translate(-18 -37.412)"/><path class="c" d="M33.056,70.2H19.444a1.444,1.444,0,0,0,0,2.888H33.056a1.444,1.444,0,1,0,0-2.888Z" transform="translate(-18 -53.425)"/></g></svg>