<svg xmlns="http://www.w3.org/2000/svg" width="100.654" height="38.187" viewBox="0 0 100.654 38.187"><defs><style>.a,.q{fill:#f8f8f8;}.b{fill:#e6e7e8;}.c,.d{fill:#5c6b74;}.c,.e{stroke:#414549;}.c,.e,.g,.j,.n{stroke-miterlimit:10;}.c,.e,.g,.j{stroke-width:0.5px;}.e,.g,.j,.n{fill:none;}.f{fill:#ced5d8;}.g{stroke:#7a7a7a;}.h,.i{fill:#e3e8eb;}.h{opacity:0.15;}.j{stroke:#94979b;}.k{fill:#d0002d;}.l{fill:#f18378;}.m{fill:#323b3f;}.o{opacity:0.12;}.p,.q{stroke:none;}</style></defs><g transform="translate(-482.732 -259.086)"><path class="a" d="M555.122,270.1a1.645,1.645,0,0,1-.863-.289c-1.892-1.31-10.276-7.051-14.074-8.533-4.3-1.676-17.13-1.938-23-1.938s-16.606-.262-24.987,2.881c-1.1.413-.1.92-.891,1.519-2.3,1.738-5.029,3.853-5.762,5.971a15.158,15.158,0,0,0-.681,5.4c-.142,1.358.458,1.824-.157,3.143-.733,1.572-1.728,1.362-1.728,2.619a13.163,13.163,0,0,0,.759,4.034c.11.266-.665,3.347,1.808,3.771,1.84.316,6.54,1.306,8.853,1.546,8.18.846,19.356.681,19.356.681s33.814.079,35.149.079a75.21,75.21,0,0,1,8.041.209l17.732.235s6.024-.5,7.883-2.907c.621-.8.463-6.405-.157-10.267a5.615,5.615,0,0,0-3.15-4.126C574.654,272.068,567.3,270.67,555.122,270.1Z"/><path class="b" d="M578.829,325.21l5.051-1.243c.3-.06.265-.64-.038-.639l-93.232.363c-.257,0-.279.5-.024.536l6.227.986a1.239,1.239,0,0,0,.2.016l81.776-.016A.169.169,0,0,0,578.829,325.21Z" transform="translate(-3.243 -27.957)"/><path class="c" d="M561.3,273.255a.149.149,0,0,0,.078-.258c-1.366-1.243-8.581-7.657-13.72-9.181-6.078-1.8-26.285-.917-31.038-.589-2.278.157-8.8,4.479-8.25,5.579a5.265,5.265,0,0,0,2.4,2.4,2.028,2.028,0,0,0,.732.163l46,2.349a6.28,6.28,0,0,0,1.3-.069Z" transform="translate(-11.079 -1.479)"/><path class="d" d="M493.985,264.982a11.561,11.561,0,0,1,1.237.471c.275.157,1.513.766,1.513.766s-4.734,3.339-5.206,3.634-2.573,2-3.536,1.866c0,0,.02-.727,1.513-2.1s3.143-2.573,3.732-3.222S494,265.512,493.985,264.982Z" transform="translate(-2.189 -2.468)"/><path class="e" d="M493.985,264.982a11.561,11.561,0,0,1,1.237.471c.275.157,1.513.766,1.513.766s-4.734,3.339-5.206,3.634-2.573,2-3.536,1.866" transform="translate(-2.189 -2.468)"/><g transform="translate(574.143 275.334)"><path class="f" d="M652.3,288.908s-3.13-1.4-4.34-1.124c-.19.043-.39-.007-.563.083l-2.535,1.3s4.649,2.41,5.906,2.41,1.3-.707,1.532-.511a12.922,12.922,0,0,1,.891,1S653.011,289.654,652.3,288.908Z" transform="translate(-644.865 -287.747)"/><path class="g" d="M652.382,288.974s-2.947-1.467-4.419-1.189a1.95,1.95,0,0,0-.563.083l-2.535,1.3s4.649,2.41,5.906,2.41,1.3-.707,1.532-.511a12.922,12.922,0,0,1,.891,1" transform="translate(-644.865 -287.748)"/></g><line class="e" x2="2.174" y2="9.534" transform="translate(526.199 261.526)"/><line class="e" x1="4.911" y2="8.368" transform="translate(505.036 261.591)"/><path class="h" d="M544.679,263.133l4.911,9.468-1.218-.079Z" transform="translate(-26.954 -1.66)"/><path class="h" d="M536.455,272.021l5.933.275-3.51-9.593-5.919.282Z" transform="translate(-21.833 -1.472)"/><path class="h" d="M568.907,263.34l3.028,9.941,4.191.157Z" transform="translate(-37.538 -1.75)"/><path class="h" d="M568.591,273.058l-2.868-9.979-3.451-.19Z" transform="translate(-34.639 -1.553)"/><path class="i" d="M490.111,281.622l77.869,4.872s-5.578.393-7.543,1.571a6.213,6.213,0,0,0-2.514,2.436s.628-1.493-2.75-1.257-20.037-1.257-24.594-1.257-16.815-.393-19.094,1.886a11.859,11.859,0,0,0-6.915-2.514c-4.086-.079-8.329-.629-11.158,4.321,0,0-10.136-.786-10.057-1.807a7.817,7.817,0,0,0,1.65-2.2c.393-1.021.157-1.965,1.964-2.986A10.807,10.807,0,0,0,490.111,281.622Z" transform="translate(-0.162 -9.737)"/><path class="i" d="M542.237,302.86s35.91,1.257,36.931,1.179A4.527,4.527,0,0,0,582,301.916a10.673,10.673,0,0,1-3.536.943C576.968,302.86,544.594,300.109,542.237,302.86Z" transform="translate(-25.887 -18.481)"/><path class="i" d="M642.423,292.5a53.809,53.809,0,0,1,4.4,3.222c.55.628,2.043.55,2.907-.078s2.2.157,2.2.157l.157-1.179A37.69,37.69,0,0,1,642.423,292.5Z" transform="translate(-69.655 -14.492)"/><path class="i" d="M483.633,303.249s8.172,1.493,8.408,2.358C492.041,305.607,484.261,305.371,483.633,303.249Z" transform="translate(-0.284 -19.185)"/><path class="j" d="M632.286,283.37a71.819,71.819,0,0,0-8.905-1.885,79.674,79.674,0,0,0-11.629-1.048l-1.886-1.467" transform="translate(-55.431 -8.579)"/><path class="j" d="M561.3,272.685s-6.6-5.867-9.744-7.6-4.243-2.777-15.3-3.039-18.754,0-21.007.367-9.115,5.134-8.748,5.92,1.519,2.619,2.882,2.933" transform="translate(-10.27 -1.141)"/><path class="j" d="M520.392,278.9a9.693,9.693,0,0,0-1.179,2.318c.039.432.864,4.872,2.122,5.972,0,0,3.654.314,5.539,2.711a11.192,11.192,0,0,1,2.672,6.364" transform="translate(-15.828 -8.548)"/><path class="j" d="M563.447,281.133a27.774,27.774,0,0,1,1.1,7.622,36.788,36.788,0,0,1-.707,8.644" transform="translate(-35.153 -9.524)"/><path class="j" d="M604.609,281.622a7.651,7.651,0,0,1,2.082,4.047,42.468,42.468,0,0,1-.2,8.879,15.984,15.984,0,0,1-.707,3.339" transform="translate(-53.135 -9.737)"/><line class="j" y1="2.436" x2="3.772" transform="translate(570.018 276.913)"/><path class="j" d="M492.772,287.2a2.5,2.5,0,0,0,.786.864c.471.275,6.993,3.693,6.993,3.693" transform="translate(-4.277 -12.175)"/><path class="k" d="M486.5,280.062a3.889,3.889,0,0,1,1.65-.209,10.9,10.9,0,0,1,3.693.6c.472.341.341.786-.052,1.44a5.667,5.667,0,0,1-2.253,2.3c-1.152.55-1.6,1-2.75,1s-.314-4.217-.314-4.217Z" transform="translate(-1.397 -8.963)"/><path class="l" d="M486.789,285.2c-1.153,0-.314-4.217-.314-4.217l.026-.917a3.889,3.889,0,0,1,1.65-.209Z" transform="translate(-1.397 -8.963)"/><path class="d" d="M657.438,303.185s-1.885-.262-2.2,1-.838,3.143.367,3.2,2.291-.013,2.344-.275.013-.091.013-.563v-3.3Z" transform="translate(-75.084 -19.148)"/><path class="d" d="M486.112,303.926c-2.473-.425-1.7-3.5-1.808-3.771a26.333,26.333,0,0,0,3.641,1c2.095.419,6.083,1.587,6.39.943v-.157s.315-4.243,2.62-5.972,5.4-1.781,7.962-1.467,5.867,1.467,7.124,4.715A15.637,15.637,0,0,1,513.3,303.3l-.1-.262s31.64.314,34.678.419,9.848.629,9.848.629a22.945,22.945,0,0,1,1.9-6.142c1.218-2.043,2.986-4.322,9.233-3.536,5.574.7,7.358,3.274,7.543,4.322.118.668.628,3.025.886,4.839a.724.724,0,0,0,.628.6,13.041,13.041,0,0,0,5.217-.4c-1.859,2.41-7.883,2.907-7.883,2.907l-17.732-.235a75.2,75.2,0,0,0-8.041-.21c-1.336,0-35.15-.079-35.15-.079" transform="translate(-0.564 -15.252)"/><path class="j" d="M507.308,261.667s-.688-.078-1.3,1.041a6.911,6.911,0,0,1-2.5,2.063" transform="translate(-8.971 -1.019)"/><path class="d" d="M585.088,263.447s-1.434.2-1.375.295,3.025,1.709,4.577,2.77,7.189,5.284,7.523,5.481a10.119,10.119,0,0,0,4.656.059,11.256,11.256,0,0,1-1.7-.177c-.314-.118-7.844-5.107-8.6-5.592S585.088,263.447,585.088,263.447Z" transform="translate(-44.005 -1.797)"/><path class="e" d="M585.088,263.447s-1.434.2-1.375.295,3.025,1.709,4.577,2.77,7.189,5.284,7.523,5.481a10.119,10.119,0,0,0,4.656.059,11.256,11.256,0,0,1-1.7-.177" transform="translate(-44.005 -1.797)"/><path class="j" d="M609.7,294.313s2.75-.157,2.514.9a15.811,15.811,0,0,1-2.2,4.557" transform="translate(-55.36 -15.278)"/><path class="g" d="M555.122,270.1a1.645,1.645,0,0,1-.863-.289c-1.892-1.31-10.276-7.051-14.074-8.533-4.3-1.676-17.13-1.938-23-1.938s-16.606-.262-24.987,2.881c-1.1.413-.1.92-.891,1.519-2.3,1.738-5.029,3.853-5.762,5.971a15.158,15.158,0,0,0-.681,5.4c-.142,1.358.458,1.824-.157,3.143-.733,1.572-1.728,1.362-1.728,2.619a13.163,13.163,0,0,0,.759,4.034c.11.266-.665,3.347,1.808,3.771,1.84.316,7.509.533,9.822.773,8.179.846,15.676,1.3,15.676,1.3s36.525.236,37.86.236c6.71,0,10.739.392,10.739.392l15.034.052s6.024-.5,7.883-2.907c.621-.8.463-6.405-.157-10.267a5.615,5.615,0,0,0-3.15-4.126C574.654,272.068,567.3,270.67,555.122,270.1Z"/><path class="i" d="M656.391,302.308s-1.945.216-1.906.805c.015.231-.675-.251-.805-.393C653.247,302.248,652.619,300.887,656.391,302.308Z" transform="translate(-74.429 -18.499)"/><g transform="translate(495.04 280.921)"><path class="m" d="M512.487,313.855a8.093,8.093,0,1,1,8.093-8.093A8.1,8.1,0,0,1,512.487,313.855Z" transform="translate(-504.394 -297.668)"/><g transform="translate(2.005 2.005)"><g class="n" transform="translate(-507.955 -301.229)"><path class="p" d="M514.042,313.405a6.088,6.088,0,1,1,6.088-6.088A6.095,6.095,0,0,1,514.042,313.405Z"/><path class="q" d="M 514.04248046875 312.4050598144531 C 516.8480224609375 312.4050598144531 519.1304321289062 310.12255859375 519.1304321289062 307.3170166015625 C 519.1304321289062 304.511474609375 516.8480224609375 302.22900390625 514.04248046875 302.22900390625 C 511.2371826171875 302.22900390625 508.9549255371094 304.511474609375 508.9549255371094 307.3170166015625 C 508.9549255371094 310.12255859375 511.2371826171875 312.4050598144531 514.04248046875 312.4050598144531 M 514.04248046875 313.4050598144531 C 510.6855773925781 313.4050598144531 507.9549255371094 310.6738586425781 507.9549255371094 307.3170166015625 C 507.9549255371094 303.960205078125 510.6855773925781 301.22900390625 514.04248046875 301.22900390625 C 517.3992919921875 301.22900390625 520.1304321289062 303.960205078125 520.1304321289062 307.3170166015625 C 520.1304321289062 310.6738586425781 517.3992919921875 313.4050598144531 514.04248046875 313.4050598144531 Z"/></g></g><g class="o" transform="translate(4.812 4.813)"><path class="a" d="M516.22,312.776a3.281,3.281,0,1,1,3.281-3.281A3.284,3.284,0,0,1,516.22,312.776Z" transform="translate(-512.939 -306.214)"/></g><path class="a" d="M513.863,305.923a.208.208,0,0,0,.376,0l1.694-4.095-1.049,4.3a.208.208,0,0,0,.3.221l3.79-2.322-3.39,2.865a.208.208,0,0,0,.115.358l4.437.337-4.437.337a.208.208,0,0,0-.115.358l3.39,2.865-3.79-2.322a.207.207,0,0,0-.3.221l1.049,4.3-1.694-4.1a.208.208,0,0,0-.375,0l-1.694,4.1,1.049-4.3a.208.208,0,0,0-.3-.221l-3.79,2.322,3.39-2.865a.208.208,0,0,0-.116-.358l-4.437-.337,4.437-.337a.208.208,0,0,0,.116-.358l-3.39-2.865,3.79,2.322a.208.208,0,0,0,.3-.221l-1.049-4.3Z" transform="translate(-505.953 -299.485)"/><g transform="translate(7.176 7.207)"><circle class="m" cx="0.353" cy="0.353" r="0.353" transform="translate(0.601 0.463)"/><circle class="m" cx="0.243" cy="0.243" r="0.243" transform="translate(0.309 0.009)"/><circle class="m" cx="0.243" cy="0.243" r="0.243" transform="translate(1.115)"/><circle class="m" cx="0.243" cy="0.243" r="0.243" transform="translate(1.349 0.807)"/><circle class="m" cx="0.243" cy="0.243" r="0.243" transform="translate(0.674 1.288)"/><circle class="m" cx="0.243" cy="0.243" r="0.243" transform="translate(0 0.753)"/></g></g><g transform="translate(559.001 280.921)"><g transform="translate(0)"><path class="m" d="M626.068,313.855a8.093,8.093,0,1,1,8.093-8.093A8.1,8.1,0,0,1,626.068,313.855Z" transform="translate(-617.975 -297.668)"/></g><g transform="translate(2.005 2.005)"><g class="n" transform="translate(-621.536 -301.229)"><path class="p" d="M627.623,313.405a6.088,6.088,0,1,1,6.088-6.088A6.095,6.095,0,0,1,627.623,313.405Z"/><path class="q" d="M 627.6234130859375 312.4050598144531 C 630.428955078125 312.4050598144531 632.71142578125 310.12255859375 632.71142578125 307.3170166015625 C 632.71142578125 304.511474609375 630.428955078125 302.22900390625 627.6234130859375 302.22900390625 C 624.8182373046875 302.22900390625 622.5360107421875 304.511474609375 622.5360107421875 307.3170166015625 C 622.5360107421875 310.12255859375 624.8182373046875 312.4050598144531 627.6234130859375 312.4050598144531 M 627.6234130859375 313.4050598144531 C 624.2666015625 313.4050598144531 621.5360107421875 310.6738586425781 621.5360107421875 307.3170166015625 C 621.5360107421875 303.960205078125 624.2666015625 301.22900390625 627.6234130859375 301.22900390625 C 630.980224609375 301.22900390625 633.71142578125 303.960205078125 633.71142578125 307.3170166015625 C 633.71142578125 310.6738586425781 630.980224609375 313.4050598144531 627.6234130859375 313.4050598144531 Z"/></g></g><g class="o" transform="translate(4.812 4.813)"><path class="a" d="M629.8,312.776a3.281,3.281,0,1,1,3.281-3.281A3.284,3.284,0,0,1,629.8,312.776Z" transform="translate(-626.52 -306.214)"/></g><path class="a" d="M627.444,305.923a.208.208,0,0,0,.376,0l1.694-4.095-1.049,4.3a.208.208,0,0,0,.3.221l3.79-2.322-3.389,2.865a.208.208,0,0,0,.115.358l4.437.337-4.437.337a.208.208,0,0,0-.115.358l3.389,2.865-3.79-2.322a.208.208,0,0,0-.3.221l1.049,4.3-1.694-4.1a.208.208,0,0,0-.375,0l-1.694,4.1,1.049-4.3a.208.208,0,0,0-.3-.221l-3.79,2.322,3.389-2.865a.208.208,0,0,0-.116-.358l-4.436-.337,4.436-.337a.208.208,0,0,0,.116-.358l-3.389-2.865,3.79,2.322a.208.208,0,0,0,.3-.221l-1.049-4.3Z" transform="translate(-619.534 -299.485)"/><g transform="translate(7.176 7.207)"><circle class="m" cx="0.353" cy="0.353" r="0.353" transform="translate(0.601 0.463)"/><circle class="m" cx="0.243" cy="0.243" r="0.243" transform="translate(0.309 0.009)"/><circle class="m" cx="0.243" cy="0.243" r="0.243" transform="translate(1.115)"/><circle class="m" cx="0.243" cy="0.243" r="0.243" transform="translate(1.349 0.807)"/><circle class="m" cx="0.243" cy="0.243" r="0.243" transform="translate(0.674 1.288)"/><circle class="m" cx="0.243" cy="0.243" r="0.243" transform="translate(0 0.753)"/></g></g></g></svg>