<svg xmlns="http://www.w3.org/2000/svg" xmlns:xlink="http://www.w3.org/1999/xlink" width="22.011" height="22.01" viewBox="0 0 22.011 22.01"><defs><style>.a{fill:none;}.b{clip-path:url(#a);}.c{fill:#424242;}</style><clipPath id="a"><rect class="a" width="22.011" height="22.01"/></clipPath></defs><g class="b"><path class="c" d="M.785,0A.787.787,0,0,0,.108,1.186l8.537,11.39v8.646a.786.786,0,0,0,1.138.7l3.144-1.572a.786.786,0,0,0,.434-.7V12.576L21.9,1.185A.787.787,0,0,0,21.221,0ZM2.163,1.572H19.844L11.9,11.962a.779.779,0,0,0-.109.4v6.8l-1.572.786v-7.59a.791.791,0,0,0-.109-.4Z" transform="translate(0.002 0.001)"/></g></svg>