<svg xmlns="http://www.w3.org/2000/svg" width="106.435" height="35.25" viewBox="0 0 106.435 35.25"><defs><style>.a,.r{fill:#f8f8f8;}.b,.e,.p{fill:#e3e8eb;}.c{fill:#d0002d;}.d{fill:#f18378;}.e{opacity:0.3;}.f{fill:#e6e7e8;}.g,.j,.l,.n{fill:none;}.g{stroke:#94979b;}.g,.i,.j,.l,.n{stroke-miterlimit:10;}.g,.i,.j,.l{stroke-width:0.5px;}.h,.i{fill:#5c6b74;}.i,.j{stroke:#414549;}.k{fill:#ced5d8;}.l{stroke:#7a7a7a;}.m{fill:#323b3f;}.o{opacity:0.12;}.p{opacity:0.15;}.q,.r{stroke:none;}</style></defs><g transform="translate(-201.048 -367.85)"><path class="a" d="M315.415,383.719s-1.7-4.605-30.737-5.907c0,0-10.012-6.208-14.117-7.81s-11.414-1.9-17.021-1.9-14.117.5-21.926,3.9-7.91,3.8-12.315,4.405-6.007.8-6.608.8-.7,2.5-.6,3.8.8,2,.1,3.2a6.548,6.548,0,0,0-1.3,3.3c0,1.2.4,5.206,1.3,6.007s11.514,2.1,11.514,2.1l18.022.9,49.56.3,18.022-.4s5.907-.5,6.808-1.3.8-1.7-.7-1.8l.1-1.3s1.4-.5,1.3-1.5A16.858,16.858,0,0,0,315.415,383.719Z" transform="translate(-9.591 0)"/><path class="b" d="M212.634,395a17.51,17.51,0,0,0-1.652,2.654c0,.35,1.3-.551,2.153-1.2a16.736,16.736,0,0,1,4.505-2.052c.6,0,10.054,2.176,10.663,2,1.4-.4,6.708-1,9.311.7a47.2,47.2,0,0,1,14.017-1.752c7.609.25,35.893,1.251,37.745,1.3s5.407,1.2,5.857.851a9.709,9.709,0,0,1,5.757-1.5,10.586,10.586,0,0,1,5.506,1.6,8.713,8.713,0,0,1,3.9.4,32.445,32.445,0,0,0,6.057,1.552,23.386,23.386,0,0,1-2.253-.751c-.35-.2-5.757-2.253-6.308-2.553s-5.407-2.453-9.462-2.353-5.506.751-8.209.751-49.46-1.852-51.262-1.952-19.974-.6-19.974-.6a2.571,2.571,0,0,1-1.752,1.164s-4.055,1.489-4.555,1.039Z" transform="translate(-9.634 -11.084)"/><g transform="translate(202.545 378.312)"><path class="c" d="M213.311,387.077s2.2.8,2.8.951,3.955.35,4.205.751a1.416,1.416,0,0,1-.9,1.952c-1.152.4-3.354.851-3.855,1.152a5.074,5.074,0,0,1-1.915.238A13.439,13.439,0,0,1,213.311,387.077Z" transform="translate(-213.207 -387.077)"/><path class="d" d="M214.8,387.6c-.741-.256-1.485-.526-1.485-.526a13.439,13.439,0,0,0,.338,5.044,5.074,5.074,0,0,0,1.915-.238A4.159,4.159,0,0,1,214.8,387.6Z" transform="translate(-213.207 -387.077)"/></g><path class="e" d="M224.969,390.7s17.921-.35,23.428.15,46.156,2.1,46.156,2.1a36.587,36.587,0,0,1-6.909.4c-3.2-.2-67.08-2.3-67.08-2.3Z" transform="translate(-14.06 -10.381)"/><path class="f" d="M284.937,431.559l4.827-1.188c.285-.057.253-.611-.035-.61l-99.412.347c-.245,0-.266.474-.023.512l5.95.942a1.246,1.246,0,0,0,.195.016l88.463-.015A.153.153,0,0,0,284.937,431.559Z" transform="translate(17 -28.478)"/><path class="b" d="M277.833,411.848s9.261-.8,15.969-.6,18.322.851,21.276.15,3.9-1.9,3.9-1.9-2.253,3.354-3.554,3.7-10.512-.1-13.466-.1-30.236-.951-30.236-.951Z" transform="translate(-37.689 -19.118)"/><path class="b" d="M351.353,386.612l-1.3.45s14.117,1.5,16.82,1.752a99.708,99.708,0,0,1,10.713,2.2S369.525,387.563,351.353,386.612Z" transform="translate(-73.864 -8.55)"/><path class="g" d="M255.075,386.891a60.93,60.93,0,0,0,4.881,7.134c1.2,1.427,4.38,7.884,5.932,8.485,1.736.64,30.336,1.2,34.867,1.276,1.139.019,2.923.024,3.975.025a.881.881,0,0,0,.885-.861c.032-1.237.064-3.761-.054-7.274-.038-1.11-.066-2.247-.086-3.179a6.51,6.51,0,0,0-1.293-3.756l-.3-.4" transform="translate(-29.999 -8.679)"/><path class="g" d="M298.331,389.961s1.276,3.6.45,12.615" transform="translate(-49.976 -10.097)"/><path class="h" d="M211.3,405.366a7.445,7.445,0,0,0,1.9,3.882c2.033,1.215,9.793,1.623,10.786,1.675a8.749,8.749,0,0,1,17.365.789c12.506.286,39.083.361,51.456.525-.1-.469,1.521-8.41,8.673-8.547,3.92-.076,8.354,2.672,8.448,8.585,1.445.084,1.99-.075,4.383-.141-2.187.263-3.933.573-5.566.591a7.3,7.3,0,0,0-7-7.49,7.192,7.192,0,0,0-7.19,7.809c-2.572.094-5.816.143-9.537.132-14.432-.042-35.487-.161-45.429-.388a7.135,7.135,0,1,0-14.249-.795c-.993-.052-9.386-.939-12.784-2.065C211.446,408.876,211.3,405.366,211.3,405.366Z" transform="translate(-9.779 -16.378)"/><path class="i" d="M302.047,380.374s-9.561-7.158-15.419-8.711-18.022-1.3-22.527-.651-12.315,2.853-11.664,4.706a9.575,9.575,0,0,0,1.4,2.753Z" transform="translate(-28.763 -1.111)"/><path class="h" d="M334.713,380.131a86.879,86.879,0,0,0-9.462-5.807c-4-1.952-4.48-2.1-4.242-2.265a1.221,1.221,0,0,1,.663-.125s4.806,2.19,7.234,3.692,6.17,3.417,6.608,3.955l1.99.137S337.591,380.031,334.713,380.131Z" transform="translate(-60.427 -1.769)"/><path class="j" d="M337.5,379.718s.088.313-2.791.413a86.879,86.879,0,0,0-9.462-5.807c-4-1.952-4.48-2.1-4.242-2.265a1.221,1.221,0,0,1,.663-.125" transform="translate(-60.427 -1.769)"/><path class="h" d="M247.435,371.495s.8.351-.075.626-7.809,2.8-9.386,3.555-4.03,2.153-5.457,1.777c0,0,6.708-2.7,7.934-3.3A49.3,49.3,0,0,1,247.435,371.495Z" transform="translate(-19.58 -1.568)"/><path class="j" d="M247.435,371.495s.8.351-.075.626-7.809,2.8-9.386,3.555-4.03,2.153-5.457,1.777" transform="translate(-19.58 -1.568)"/><path class="k" d="M398.518,397.194a16.077,16.077,0,0,0-4.468-.826c-2.253-.038-2.628,0-2.816.188s-.638.638-.488.9,5.068,2.591,6.27,2.591,1.239-.676,1.464-.488,1.163,1.464,1.163,1.464S399.194,397.907,398.518,397.194Z" transform="translate(-92.645 -13.049)"/><path class="l" d="M398.518,397.194a16.077,16.077,0,0,0-4.468-.826c-2.253-.038-2.628,0-2.816.188s-.638.638-.488.9,5.068,2.591,6.27,2.591,1.239-.676,1.464-.488,1.163,1.464,1.163,1.464" transform="translate(-92.645 -13.049)"/><path class="h" d="M375.878,410.433a16.837,16.837,0,0,0-2.853-.075,6.678,6.678,0,0,0-1.464,2.553c0,.376-.092.83.676,1.014a4.642,4.642,0,0,0,3.341-.713l-1.051-.413-.038-.826S375.878,410.846,375.878,410.433Z" transform="translate(-83.796 -19.493)"/><path class="l" d="M315.415,383.719s-1.7-4.605-30.737-5.907c0,0-10.012-6.208-14.117-7.81s-11.414-1.9-17.021-1.9-14.117.5-21.926,3.9-7.91,3.8-12.315,4.405-6.007.8-6.608.8-.7,2.5-.6,3.8.8,2,.1,3.2a6.548,6.548,0,0,0-1.3,3.3c0,1.2.4,5.206,1.3,6.007s11.514,2.1,11.514,2.1l18.022.9,49.56.3,18.022-.4s5.907-.5,6.808-1.3.8-1.7-.7-1.8l.1-1.3s1.4-.5,1.3-1.5A16.858,16.858,0,0,0,315.415,383.719Z" transform="translate(-9.591 0)"/><g transform="translate(215.559 388.859)"><path class="m" d="M244.5,420.9a7.112,7.112,0,1,1,7.111-7.112A7.12,7.12,0,0,1,244.5,420.9Z" transform="translate(-237.389 -406.675)"/><g transform="translate(1.762 1.762)"><g class="n" transform="translate(-240.663 -409.949)"><path class="q" d="M246.013,420.648a5.35,5.35,0,1,1,5.349-5.35A5.356,5.356,0,0,1,246.013,420.648Z"/><path class="r" d="M 246.0127410888672 419.6484985351562 C 248.4109039306641 419.6484985351562 250.3619537353516 417.6972045898438 250.3619537353516 415.2987670898438 C 250.3619537353516 412.9002990722656 248.4109039306641 410.9490051269531 246.0127410888672 410.9490051269531 C 243.6142883300781 410.9490051269531 241.6629943847656 412.9002990722656 241.6629943847656 415.2987670898438 C 241.6629943847656 417.6972045898438 243.6142883300781 419.6484985351562 246.0127410888672 419.6484985351562 M 246.0127410888672 420.6484985351562 C 243.0631408691406 420.6484985351562 240.6629943847656 418.2483520507812 240.6629943847656 415.2987670898438 C 240.6629943847656 412.3486022949219 243.0631408691406 409.9490051269531 246.0127410888672 409.9490051269531 C 248.9623260498047 409.9490051269531 251.3619537353516 412.3486022949219 251.3619537353516 415.2987670898438 C 251.3619537353516 418.2483520507812 248.9623260498047 420.6484985351562 246.0127410888672 420.6484985351562 Z"/></g></g><g class="o" transform="translate(4.229 4.229)"><path class="a" d="M248.13,420.3a2.883,2.883,0,1,1,2.883-2.883A2.886,2.886,0,0,1,248.13,420.3Z" transform="translate(-245.247 -414.533)"/></g><path class="a" d="M245.856,414.1a.183.183,0,0,0,.33,0l1.489-3.6-.922,3.779a.183.183,0,0,0,.266.194l3.331-2.041-2.979,2.518a.183.183,0,0,0,.1.314l3.9.3-3.9.3a.183.183,0,0,0-.1.314l2.979,2.518-3.331-2.041a.182.182,0,0,0-.266.194l.922,3.779-1.489-3.6a.183.183,0,0,0-.33,0l-1.489,3.6.922-3.779a.182.182,0,0,0-.266-.194l-3.331,2.041,2.979-2.518a.183.183,0,0,0-.1-.314l-3.9-.3,3.9-.3a.183.183,0,0,0,.1-.314l-2.979-2.518,3.331,2.041a.183.183,0,0,0,.266-.194l-.922-3.779Z" transform="translate(-238.904 -408.442)"/><g transform="translate(6.306 6.332)"><circle class="m" cx="0.31" cy="0.31" r="0.31" transform="translate(0.529 0.407)"/><circle class="m" cx="0.213" cy="0.213" r="0.213" transform="translate(0.271 0.008)"/><circle class="m" cx="0.213" cy="0.213" r="0.213" transform="translate(0.98)"/><circle class="m" cx="0.213" cy="0.213" r="0.213" transform="translate(1.185 0.709)"/><circle class="m" cx="0.213" cy="0.213" r="0.213" transform="translate(0.592 1.132)"/><circle class="m" cx="0.213" cy="0.213" r="0.213" transform="translate(0 0.662)"/></g></g><g transform="translate(284.694 388.859)"><g transform="translate(0)"><path class="m" d="M372.97,420.9a7.112,7.112,0,1,1,7.112-7.112A7.12,7.12,0,0,1,372.97,420.9Z" transform="translate(-365.858 -406.675)"/></g><g transform="translate(1.762 1.762)"><g class="n" transform="translate(-369.132 -409.949)"><path class="q" d="M374.481,420.648a5.35,5.35,0,1,1,5.35-5.35A5.356,5.356,0,0,1,374.481,420.648Z"/><path class="r" d="M 374.481201171875 419.6484985351562 C 376.8796691894531 419.6484985351562 378.8309326171875 417.6972045898438 378.8309326171875 415.2987670898438 C 378.8309326171875 412.9002990722656 376.8796691894531 410.9490051269531 374.481201171875 410.9490051269531 C 372.0830688476562 410.9490051269531 370.1320190429688 412.9002990722656 370.1320190429688 415.2987670898438 C 370.1320190429688 417.6972045898438 372.0830688476562 419.6484985351562 374.481201171875 419.6484985351562 M 374.481201171875 420.6484985351562 C 371.5316162109375 420.6484985351562 369.1320190429688 418.2483520507812 369.1320190429688 415.2987670898438 C 369.1320190429688 412.3486022949219 371.5316162109375 409.9490051269531 374.481201171875 409.9490051269531 C 377.4308166503906 409.9490051269531 379.8309326171875 412.3486022949219 379.8309326171875 415.2987670898438 C 379.8309326171875 418.2483520507812 377.4308166503906 420.6484985351562 374.481201171875 420.6484985351562 Z"/></g></g><g class="o" transform="translate(4.228 4.229)"><path class="a" d="M376.6,420.3a2.883,2.883,0,1,1,2.883-2.883A2.886,2.886,0,0,1,376.6,420.3Z" transform="translate(-373.715 -414.533)"/></g><path class="a" d="M374.324,414.1a.183.183,0,0,0,.33,0l1.488-3.6-.922,3.779a.183.183,0,0,0,.266.194l3.331-2.041-2.978,2.518a.183.183,0,0,0,.1.314l3.9.3-3.9.3a.183.183,0,0,0-.1.314l2.978,2.518-3.331-2.041a.182.182,0,0,0-.266.194l.922,3.779-1.489-3.6a.182.182,0,0,0-.329,0l-1.489,3.6.922-3.779a.182.182,0,0,0-.266-.194l-3.331,2.041,2.979-2.518a.183.183,0,0,0-.1-.314l-3.9-.3,3.9-.3a.183.183,0,0,0,.1-.314l-2.979-2.518,3.331,2.041a.183.183,0,0,0,.266-.194l-.922-3.779Z" transform="translate(-367.373 -408.442)"/><g transform="translate(6.305 6.332)"><circle class="m" cx="0.31" cy="0.31" r="0.31" transform="translate(0.529 0.407)"/><circle class="m" cx="0.213" cy="0.213" r="0.213" transform="translate(0.271 0.008)"/><circle class="m" cx="0.213" cy="0.213" r="0.213" transform="translate(0.98)"/><circle class="m" cx="0.213" cy="0.213" r="0.213" transform="translate(1.185 0.709)"/><circle class="m" cx="0.213" cy="0.213" r="0.213" transform="translate(0.592 1.132)"/><circle class="m" cx="0.213" cy="0.213" r="0.213" transform="translate(0 0.662)"/></g></g><line class="j" x2="1.101" y2="8.36" transform="translate(246.903 369.677)"/><line class="j" x2="0.651" y2="6.533" transform="translate(232.235 370.903)"/><path class="p" d="M284.377,371.367l6.333,8.254-.776-.025Z" transform="translate(-43.532 -1.509)"/><path class="p" d="M283.527,379.247l3.079.1L281,370.937l-2.528.175Z" transform="translate(-40.804 -1.31)"/><path class="p" d="M307.954,371.563l4.708,8.574,4,.15Z" transform="translate(-54.421 -1.599)"/><path class="p" d="M309.172,379.9l-4.555-8.61-3.3-.181Z" transform="translate(-51.357 -1.391)"/><path class="g" d="M217.587,396.007,219,397.633a3.2,3.2,0,0,0,1.443.95l10.459,2.129" transform="translate(-12.685 -12.889)"/><path class="g" d="M372.291,392.427a31.3,31.3,0,0,0-11.414-2.2,72.628,72.628,0,0,1-11.814-1l-1.8-1.4" transform="translate(-72.575 -9.108)"/><path class="b" d="M257.447,371.991s7.81-2.278,12.165-2.4a102.532,102.532,0,0,1,15.519.25s-1.777-.526-2.728-.676-11.339-.626-17.071.526S257.447,371.991,257.447,371.991Z" transform="translate(-31.094 -0.387)"/><path class="b" d="M216.773,384.329a55.064,55.064,0,0,0,7.584-.751,15.228,15.228,0,0,0,5.632-1.99,43.964,43.964,0,0,1-6.082,1.652C221.091,383.728,216.773,384.329,216.773,384.329Z" transform="translate(-12.309 -6.229)"/><path class="e" d="M253.772,374.612s-3.529,1.4-3.129,2.9a11.348,11.348,0,0,0,1.7,3.2l45.655,1.7s-20.274-.05-25.781-.25-19.574-.15-20.625-.9-2-3.4-2.1-4.055S252.646,374.662,253.772,374.612Z" transform="translate(-27.419 -3.008)"/></g></svg>