<svg xmlns="http://www.w3.org/2000/svg" xmlns:xlink="http://www.w3.org/1999/xlink" width="21.125" height="28.196" viewBox="0 0 21.125 28.196"><defs><style>.a{fill:none;}.b{clip-path:url(#a);}.c{fill:#fff;}</style><clipPath id="a"><rect class="a" width="21.125" height="28.196"/></clipPath></defs><g class="b"><path class="c" d="M31.728,36.639,32.41,34.8a.6.6,0,0,0-.563-.8H18.92a4,4,0,0,0-4,3.617l-.534,4.922a.966.966,0,0,0,.741,1.038c.534.119,1.245.208,1.957.3l.445,7.827a1.237,1.237,0,0,0,1.245,1.156h3.8A1.257,1.257,0,0,0,23.812,51.7l.652-13.431a1.221,1.221,0,0,1,1.216-1.216h5.485A.65.65,0,0,0,31.728,36.639Z" transform="translate(-14.377 -24.66)"/><circle class="c" cx="4.121" cy="4.121" r="4.121" transform="translate(2.201)"/><path class="c" d="M63.366,55.368A.777.777,0,0,0,62.921,54l-1.838-.148a.787.787,0,0,1-.652-.474l-.712-1.69a.776.776,0,0,0-1.423,0l-.712,1.69a.787.787,0,0,1-.652.474L55.094,54a.777.777,0,0,0-.445,1.364l1.394,1.186a.741.741,0,0,1,.237.771L55.865,59.1a.769.769,0,0,0,1.156.83l1.571-.949a.776.776,0,0,1,.8,0l1.571.949a.774.774,0,0,0,1.156-.83l-.415-1.779a.8.8,0,0,1,.237-.771Z" transform="translate(-42.515 -36.778)"/></g></svg>