<svg xmlns="http://www.w3.org/2000/svg" width="33.916" height="32.56" viewBox="0 0 33.916 32.56"><defs><style>.a{fill:#125ead;}</style></defs><g transform="translate(0 0)"><path class="a" d="M159.615,27.218a4.646,4.646,0,0,0,1.166-3.158,4.125,4.125,0,0,0-4.069-4.07h-5.871a5.344,5.344,0,0,1,.169-.509,3.546,3.546,0,0,1,.233-.466q.148-.254.212-.382.381-.72.583-1.187a8.663,8.663,0,0,0,.4-1.272,6.608,6.608,0,0,0,.2-1.611c0-.339,0-.615-.011-.827a9.111,9.111,0,0,0-.106-.954,5.353,5.353,0,0,0-.255-1.06,4.938,4.938,0,0,0-.509-.954,2.972,2.972,0,0,0-.848-.859,4.645,4.645,0,0,0-1.272-.551,6.331,6.331,0,0,0-1.749-.223,1.3,1.3,0,0,0-.954.4,3.68,3.68,0,0,0-.721,1.06,6.307,6.307,0,0,0-.414,1.1q-.117.466-.265,1.293-.191.891-.287,1.282a6.778,6.778,0,0,1-.371,1.028,3.248,3.248,0,0,1-.657,1.018,31.339,31.339,0,0,0-2.141,2.544q-1.039,1.356-2.141,2.565t-1.611,1.251a1.39,1.39,0,0,0-.911.435,1.279,1.279,0,0,0-.382.922V37.625a1.269,1.269,0,0,0,.4.943,1.4,1.4,0,0,0,.954.414,15.5,15.5,0,0,1,3.349.933q1.632.55,2.554.837t2.575.615a15.75,15.75,0,0,0,3.052.329h2.735a5.267,5.267,0,0,0,4.176-1.653,5.1,5.1,0,0,0,1.039-3.837,4.123,4.123,0,0,0,1.145-1.992,4.36,4.36,0,0,0,0-2.48,4.4,4.4,0,0,0,.911-2.9A5.052,5.052,0,0,0,159.615,27.218Z" transform="translate(-126.865 -9.136)"/><path class="a" d="M7.462,191.864h-6.1a1.3,1.3,0,0,0-.954.4,1.3,1.3,0,0,0-.4.954v13.567a1.3,1.3,0,0,0,.4.954,1.306,1.306,0,0,0,.954.4h6.1a1.375,1.375,0,0,0,1.357-1.356V193.221a1.376,1.376,0,0,0-1.357-1.357ZM5.024,205.038a1.321,1.321,0,0,1-.954.392,1.356,1.356,0,0,1-.964-2.31,1.343,1.343,0,0,1,1.918,0,1.343,1.343,0,0,1,0,1.918Z" transform="translate(0 -178.297)"/></g></svg>