<svg xmlns="http://www.w3.org/2000/svg" width="287.413" height="57.941" viewBox="0 0 287.413 57.941"><defs><style>.a{fill:#235832;}.b{fill:#0050a0;}.c{fill:#1f6a2e;}</style></defs><g transform="translate(-131.15 -21.447)"><g transform="translate(197.573 22.412)"><path class="a" d="M288.716,41.815c-.812,1.452-1.562,1.925-2.656,1.677a2.192,2.192,0,0,1-.284-4.206,2.137,2.137,0,0,1,2.537.867c.132.192.27.381.4.57Z" transform="translate(-69.933 -7.655)"/><path class="a" d="M218.8,36.754V22c1.69,0,3.256-.011,4.822.022.141,0,.348.28.4.467a3.069,3.069,0,0,1,.024.812q0,13.684,0,27.367c0,1.555.156,1.784,1.472,2.282v4.4a6.286,6.286,0,0,1-4.424-.3c-1.588-.889-1.457-2.491-1.5-4.013l-.275-.152a1.9,1.9,0,0,1-.156.425c-3.511,5.362-11.429,6.134-16.327,1.575a13.476,13.476,0,0,1-4.222-11.339,14.057,14.057,0,0,1,2.468-7.21c4.275-6.153,13.068-6.363,17.215-.176C218.387,36.292,218.51,36.413,218.8,36.754Zm.024,8.213a15.066,15.066,0,0,1,.011-1.727,5.107,5.107,0,0,0-1.595-4.182,11.146,11.146,0,0,0-1.9-1.677,6.664,6.664,0,0,0-9.2,1.27,9.387,9.387,0,0,0-2.029,8,7.86,7.86,0,0,0,8.948,6.591,6.765,6.765,0,0,0,5.768-6.911Z" transform="translate(-141.394 -21.956)"/><path class="a" d="M167.382,52.709l2.414-4.482c.268.2.495.372.726.539a18.1,18.1,0,0,0,13.416,3.6c2.457-.334,3.9-1.6,4.255-3.579a3.483,3.483,0,0,0-1.551-3.877,21.553,21.553,0,0,0-4.2-1.861c-2.607-.871-5.278-1.551-7.887-2.414a11.075,11.075,0,0,1-2.724-1.417c-2.607-1.784-3.414-4.4-3.071-7.394.559-4.9,3.577-8.055,8.662-9.049a18.853,18.853,0,0,1,14.91,3.291c.075.051.141.114.269.216l-2.374,4.3a14.611,14.611,0,0,0-10.263-3.37,10.006,10.006,0,0,0-2.576.471,4.37,4.37,0,0,0-3.133,5,3.236,3.236,0,0,0,2.007,2.73c1.754.719,3.579,1.278,5.388,1.853,1.987.631,4.009,1.153,5.982,1.828a13.353,13.353,0,0,1,2.842,1.393c2.9,1.853,3.767,4.651,3.516,7.933-.359,4.708-3.529,7.641-8.3,8.53a22.911,22.911,0,0,1-17.724-3.755C167.773,53.057,167.6,52.89,167.382,52.709Z" transform="translate(-167.382 -21.625)"/><path class="a" d="M221.52,37.09c.334-.462.511-.722.7-.972a10.493,10.493,0,0,1,10.694-4.286,6.994,6.994,0,0,1,5.529,5.929,21.222,21.222,0,0,1,.38,3.7c.044,5.031.022,10.063.022,15.1,0,.236-.029.473-.048.764h-5.161V56.3c0-4.486.016-8.972-.022-13.458a12.406,12.406,0,0,0-.365-2.871,4.479,4.479,0,0,0-6.055-3.41,8.543,8.543,0,0,0-5.529,5.262,3.931,3.931,0,0,0-.193,1.424c-.015,4.275-.009,8.549-.009,12.822v1.239h-5.133c-.024-.357-.068-.709-.07-1.06q-.006-16.552-.022-33.1c0-.915.231-1.239,1.17-1.159a21.472,21.472,0,0,0,3.091.006c.763-.046.984.224.979.973-.029,4.3-.015,8.609-.013,12.914C221.469,36.2,221.494,36.518,221.52,37.09Z" transform="translate(-126.669 -21.974)"/><path class="a" d="M186.6,33.812l-1.531-3.157c.068-.112.1-.216.161-.258a16.817,16.817,0,0,1,13.746-2.666c4.556,1.129,7.014,4.455,7.1,9.5.051,3.15.009,6.3.022,9.452,0,1.254.189,1.483,1.432,1.894v4.4a6.656,6.656,0,0,1-4.27-.187c-1.505-.742-1.567-2.231-1.685-3.668l-.248-.167a6.55,6.55,0,0,1-.616.84c-3.329,3.3-7.289,4.515-11.8,3.15a7.6,7.6,0,0,1-5.086-9.528,7.32,7.32,0,0,1,3.868-4.371c3.4-1.754,6.987-1.727,10.628-1,.792.16,1.569.405,2.35.609a5.823,5.823,0,0,0-5.28-7.685,12.491,12.491,0,0,0-6.86,1.707C187.923,33.019,187.332,33.383,186.6,33.812Zm14.267,10.063c0-2.288,0-2.29-1.984-2.8-.293-.077-.587-.156-.884-.2-2.356-.385-4.706-.568-6.95.5a4.032,4.032,0,0,0-2.579,4.27,4.383,4.383,0,0,0,3.348,3.762,8.016,8.016,0,0,0,6.369-1.047C199.876,47.291,201.3,45.958,200.867,43.875Z" transform="translate(-153.968 -17.589)"/><path class="a" d="M254.981,48.592c0,1.289-.022,2.53.009,3.767.013.515-.222.739-.676.753a16.986,16.986,0,0,1-2.627.006,2.838,2.838,0,0,1-2.51-2.6c-.064-.475-.126-.95-.215-1.611-.323.357-.537.6-.752.83-3.06,3.36-8.312,4.7-12.3,3.06A7.407,7.407,0,0,1,231,46.276c-.312-3.355,1.267-5.7,4.14-7.238a13.725,13.725,0,0,1,8.206-1.349c1.611.181,3.2.566,4.8.862.818-4.765-1.677-7.4-5.5-7.588a12.156,12.156,0,0,0-6.514,1.632c-.664.359-1.311.75-2.086,1.2l-1.6-3.269a17.53,17.53,0,0,1,11.524-3.214,14.841,14.841,0,0,1,2.326.365,8.939,8.939,0,0,1,7.17,8.976c.062,3.3.015,6.6.027,9.905C253.5,47.871,253.7,48.132,254.981,48.592Zm-6.7-4.625c0-2.444,0-2.446-2.13-2.953-.236-.057-.471-.114-.711-.152-2.325-.378-4.642-.565-6.866.464a4.1,4.1,0,0,0-2.7,4.119,4.424,4.424,0,0,0,3.463,3.969A8.083,8.083,0,0,0,246,48.1C247.47,47.066,248.733,45.809,248.284,43.966Z" transform="translate(-114.403 -17.579)"/><path class="a" d="M269.746,52.956h-5.188V51.89c0-4.273.022-8.549-.015-12.822a17.518,17.518,0,0,0-.328-3.335c-.631-3.085-2.825-4.422-5.863-3.569a8.64,8.64,0,0,0-5.828,5.427,3.434,3.434,0,0,0-.165,1.245q-.017,6.5-.007,13.005v1.111H247.2V27.734c1.419,0,2.858-.022,4.294.033.147.005.385.478.392.741a36.011,36.011,0,0,0,.207,3.945c.191-.246.385-.488.57-.737a11.962,11.962,0,0,1,11.779-4.2c3.089.8,4.38,3.118,4.955,5.993a14.794,14.794,0,0,1,.334,2.792C269.762,41.816,269.746,47.332,269.746,52.956Z" transform="translate(-100.871 -17.599)"/><path class="a" d="M279.763,41.144a1.8,1.8,0,0,1,1.782-1.791,1.833,1.833,0,0,1,.007,3.667A1.794,1.794,0,0,1,279.763,41.144Z" transform="translate(-73.736 -7.491)"/><path class="a" d="M278.058,41.025a1.474,1.474,0,0,1-1.461,1.424A1.384,1.384,0,0,1,275.2,41a1.423,1.423,0,0,1,1.423-1.441A1.511,1.511,0,0,1,278.058,41.025Z" transform="translate(-77.539 -7.319)"/><path class="a" d="M272.752,40.494c-.081.909-.356,1.336-1.023,1.36a.936.936,0,0,1-1.085-.953c-.049-.706.359-1.173,1-1.1C272.078,39.843,272.461,40.3,272.752,40.494Z" transform="translate(-81.339 -7.127)"/><path class="a" d="M267.727,40.6c-.51.35-.764.658-1.017.658-.218,0-.631-.381-.607-.544a.968.968,0,0,1,.568-.7C266.891,39.966,267.193,40.285,267.727,40.6Z" transform="translate(-85.12 -6.944)"/></g><g transform="translate(131.15 21.447)"><path class="b" d="M136.468,63.11l-1.562,2.717a60.814,60.814,0,0,1-1.274-38.242,60.608,60.608,0,0,0,.735,6.594c1.01,4.686,3.971,8,8.013,10.4,4.154,2.468,8.781,3.705,13.365,5.06,4.772,1.41,9.551,2.8,14.283,4.336a16.974,16.974,0,0,1,3.793,2.055,8.68,8.68,0,0,1-1.232,15.051,19.611,19.611,0,0,1-6.015,1.668c-9.447.863-18.1-1.657-26.1-6.618-1.133-.7-2.138-1.617-3.2-2.429C137.036,63.517,136.791,63.345,136.468,63.11Z" transform="translate(-131.15 -16.332)"/><path class="c" d="M177.7,24.4s8.187,12.685,5.073,35.518c0,0-1.5-9.572-19.6-13.953s-24.331-6-23.754-15.568,20.295-13.607,35.632-1.153Z" transform="translate(-124.298 -21.447)"/></g><g transform="translate(197.957 67.684)"><path class="b" d="M174.1,51.79a2.211,2.211,0,0,1,.407,1.353,2.105,2.105,0,0,1-.785,1.738,3.426,3.426,0,0,1-2.189.627h-3.938V46.827h3.815a3.325,3.325,0,0,1,2.11.6,2.17,2.17,0,0,1,.409,2.853,2.045,2.045,0,0,1-.994.737A2.148,2.148,0,0,1,174.1,51.79Zm-4.968-1.3h2.024q1.633,0,1.633-1.221a1.075,1.075,0,0,0-.4-.915,2.042,2.042,0,0,0-1.23-.3h-2.024Zm3.48,3.5a1.14,1.14,0,0,0,.4-.962,1.19,1.19,0,0,0-.4-.988,2,2,0,0,0-1.248-.317h-2.231v2.572h2.231A2.05,2.05,0,0,0,172.607,53.984Z" transform="translate(-167.591 -46.536)"/><path class="b" d="M177.744,48.2V54.36h-1.487v-.95a1.989,1.989,0,0,1-.779.779,2.288,2.288,0,0,1-1.122.269q-2.258,0-2.257-2.537V48.2h1.512v3.731a1.486,1.486,0,0,0,.275.988,1.058,1.058,0,0,0,.847.315,1.383,1.383,0,0,0,1.073-.438,1.663,1.663,0,0,0,.4-1.17V48.2Z" transform="translate(-163.835 -45.388)"/><path class="b" d="M176.029,46.681h1.7v1.5h-1.7Zm.1,8.948V49.473h1.511v6.156Z" transform="translate(-160.56 -46.657)"/><path class="b" d="M177.818,55.64V46.668h1.512V55.64Z" transform="translate(-159.069 -46.668)"/><path class="b" d="M185.6,46.668V55.64h-1.5v-.986a1.972,1.972,0,0,1-.8.8,2.446,2.446,0,0,1-1.193.288,2.545,2.545,0,0,1-1.413-.4,2.654,2.654,0,0,1-.97-1.14,4.263,4.263,0,0,1-.007-3.359,2.559,2.559,0,0,1,2.391-1.512,2.478,2.478,0,0,1,1.177.275,1.943,1.943,0,0,1,.8.774V46.668Zm-1.919,7.351a2.862,2.862,0,0,0,.005-2.975,1.408,1.408,0,0,0-1.17-.524,1.444,1.444,0,0,0-1.188.519,2.267,2.267,0,0,0-.422,1.468,2.365,2.365,0,0,0,.422,1.5,1.406,1.406,0,0,0,1.175.537A1.427,1.427,0,0,0,183.678,54.019Z" transform="translate(-157.777 -46.668)"/><path class="b" d="M183.617,46.681h1.7v1.5h-1.7Zm.1,8.948V49.473h1.511v6.156Z" transform="translate(-154.237 -46.657)"/><path class="b" d="M191.181,50.654v3.778h-1.523V50.728a1.652,1.652,0,0,0-.28-1.067,1.064,1.064,0,0,0-.865-.335,1.487,1.487,0,0,0-1.122.444,1.632,1.632,0,0,0-.427,1.177v3.487H185.45V50.02a13.768,13.768,0,0,0-.1-1.743h1.426l.11,1.012a2.246,2.246,0,0,1,.86-.867,2.471,2.471,0,0,1,1.225-.3Q191.182,48.117,191.181,50.654Z" transform="translate(-152.79 -45.461)"/><path class="b" d="M195.521,48.277v5.962a2.849,2.849,0,0,1-.792,2.182,3.28,3.28,0,0,1-2.328.744,5.136,5.136,0,0,1-2.513-.6l.246-1.157a4.8,4.8,0,0,0,2.231.583,1.45,1.45,0,0,0,1.646-1.633V53.14a2.174,2.174,0,0,1-.818.812,2.364,2.364,0,0,1-1.206.31,2.7,2.7,0,0,1-1.434-.383,2.587,2.587,0,0,1-.975-1.085,3.882,3.882,0,0,1,0-3.206,2.587,2.587,0,0,1,.975-1.085,2.685,2.685,0,0,1,1.434-.385,2.513,2.513,0,0,1,1.212.288,1.98,1.98,0,0,1,.812.8v-.926Zm-1.945,4.292a2.418,2.418,0,0,0,.007-2.755,1.671,1.671,0,0,0-2.385,0,2.41,2.41,0,0,0,0,2.755,1.662,1.662,0,0,0,2.378,0Z" transform="translate(-149.559 -45.461)"/><path class="b" d="M197.671,50.264v2.755c0,.724.336,1.085,1.01,1.085a2.2,2.2,0,0,0,.611-.1v1.206a2.883,2.883,0,0,1-.975.147,2.132,2.132,0,0,1-1.61-.585,2.339,2.339,0,0,1-.561-1.683V50.264h-1.182V49.118h1.182v-1.5l1.525-.512v2.011H199.3v1.146Z" transform="translate(-144.782 -46.302)"/><path class="b" d="M203.633,51.862V55.64h-1.523V51.935a1.652,1.652,0,0,0-.281-1.067,1.064,1.064,0,0,0-.865-.335,1.487,1.487,0,0,0-1.122.444,1.632,1.632,0,0,0-.427,1.177V55.64H197.9V46.668h1.512v3.705a2.177,2.177,0,0,1,.842-.774,2.479,2.479,0,0,1,1.17-.275Q203.634,49.324,203.633,51.862Z" transform="translate(-142.333 -46.668)"/><path class="b" d="M207.456,51.435h-4.242a2.222,2.222,0,0,0,.493,1.456,1.74,1.74,0,0,0,1.324.469,3.042,3.042,0,0,0,1.877-.658l.438,1.049a3.373,3.373,0,0,1-1.078.566,4.116,4.116,0,0,1-1.3.214,3.24,3.24,0,0,1-2.378-.854,3.136,3.136,0,0,1-.865-2.341,3.576,3.576,0,0,1,.378-1.67,2.793,2.793,0,0,1,1.06-1.14,2.967,2.967,0,0,1,1.549-.409,2.559,2.559,0,0,1,2.006.823,3.273,3.273,0,0,1,.737,2.262Zm-3.7-1.861a1.763,1.763,0,0,0-.493,1.043h2.865a1.71,1.71,0,0,0-.422-1.049,1.278,1.278,0,0,0-.957-.354A1.4,1.4,0,0,0,203.757,49.574Z" transform="translate(-139.146 -45.461)"/><path class="b" d="M213.152,50.654v3.778h-1.523V50.728a1.663,1.663,0,0,0-.279-1.067,1.067,1.067,0,0,0-.867-.335,1.483,1.483,0,0,0-1.12.444,1.624,1.624,0,0,0-.427,1.177v3.487h-1.512V50.02a14.127,14.127,0,0,0-.1-1.743h1.426l.11,1.012a2.242,2.242,0,0,1,.858-.867,2.483,2.483,0,0,1,1.226-.3Q213.155,48.117,213.152,50.654Z" transform="translate(-134.48 -45.461)"/><path class="b" d="M216.934,51.435H212.69a2.222,2.222,0,0,0,.495,1.456,1.733,1.733,0,0,0,1.322.469,3.043,3.043,0,0,0,1.877-.658l.44,1.049a3.4,3.4,0,0,1-1.08.566,4.107,4.107,0,0,1-1.3.214,3.243,3.243,0,0,1-2.378-.854,3.135,3.135,0,0,1-.865-2.341,3.6,3.6,0,0,1,.378-1.67,2.784,2.784,0,0,1,1.061-1.14,2.967,2.967,0,0,1,1.549-.409,2.555,2.555,0,0,1,2,.823,3.273,3.273,0,0,1,.739,2.262Zm-3.7-1.861a1.774,1.774,0,0,0-.493,1.043H215.6a1.709,1.709,0,0,0-.42-1.049,1.283,1.283,0,0,0-.959-.354A1.4,1.4,0,0,0,213.232,49.574Z" transform="translate(-131.25 -45.461)"/><path class="b" d="M223.61,48.2H225.1l-2.413,6.156h-1.329l-1.523-4.035-1.489,4.035H217L214.588,48.2h1.562l1.584,4.341,1.6-4.341h1.1l1.6,4.378Z" transform="translate(-128.429 -45.388)"/><path class="b" d="M228.213,51.435h-4.244a2.212,2.212,0,0,0,.5,1.456,1.733,1.733,0,0,0,1.322.469,3.043,3.043,0,0,0,1.877-.658l.438,1.049a3.372,3.372,0,0,1-1.078.566,4.116,4.116,0,0,1-1.3.214,3.243,3.243,0,0,1-2.378-.854,3.136,3.136,0,0,1-.865-2.341,3.575,3.575,0,0,1,.378-1.67,2.785,2.785,0,0,1,1.061-1.14,2.961,2.961,0,0,1,1.547-.409,2.559,2.559,0,0,1,2.006.823,3.273,3.273,0,0,1,.739,2.262Zm-3.7-1.861a1.763,1.763,0,0,0-.493,1.043h2.865a1.71,1.71,0,0,0-.422-1.049,1.276,1.276,0,0,0-.957-.354A1.4,1.4,0,0,0,224.511,49.574Z" transform="translate(-121.851 -45.461)"/><path class="b" d="M232.087,50.654v3.778h-1.523V50.728a1.663,1.663,0,0,0-.28-1.067,1.066,1.066,0,0,0-.865-.335,1.487,1.487,0,0,0-1.122.444,1.624,1.624,0,0,0-.427,1.177v3.487h-1.512V50.02a13.766,13.766,0,0,0-.1-1.743h1.426l.11,1.012a2.234,2.234,0,0,1,.86-.867,2.472,2.472,0,0,1,1.225-.3Q232.088,48.117,232.087,50.654Z" transform="translate(-118.704 -45.461)"/><path class="b" d="M232.611,50.264v2.755q0,1.086,1.012,1.085a2.172,2.172,0,0,0,.609-.1v1.206a2.864,2.864,0,0,1-.973.147,2.126,2.126,0,0,1-1.61-.585,2.331,2.331,0,0,1-.563-1.683V50.264H229.9V49.118h1.182v-1.5l1.525-.512v2.011h1.633v1.146Z" transform="translate(-115.667 -46.302)"/><path class="b" d="M236.812,48.223l-.011,1.388a2.14,2.14,0,0,0-.8-.158,1.525,1.525,0,0,0-1.19.451,1.715,1.715,0,0,0-.407,1.2v3.327h-1.512V50.014a14.121,14.121,0,0,0-.1-1.743h1.426l.121,1.085a1.828,1.828,0,0,1,.731-.915,2.079,2.079,0,0,1,1.135-.317A1.688,1.688,0,0,1,236.812,48.223Z" transform="translate(-113.261 -45.455)"/><path class="b" d="M240.928,51.435h-4.244a2.223,2.223,0,0,0,.495,1.456,1.737,1.737,0,0,0,1.324.469,3.046,3.046,0,0,0,1.877-.658l.438,1.049a3.382,3.382,0,0,1-1.08.566,4.1,4.1,0,0,1-1.3.214,3.238,3.238,0,0,1-2.376-.854,3.136,3.136,0,0,1-.867-2.341,3.6,3.6,0,0,1,.378-1.67,2.808,2.808,0,0,1,1.061-1.14,2.967,2.967,0,0,1,1.549-.409,2.562,2.562,0,0,1,2.006.823,3.273,3.273,0,0,1,.737,2.262Zm-3.7-1.861a1.774,1.774,0,0,0-.493,1.043H239.6a1.71,1.71,0,0,0-.42-1.049,1.283,1.283,0,0,0-.959-.354A1.4,1.4,0,0,0,237.226,49.574Z" transform="translate(-111.256 -45.461)"/><path class="b" d="M243.992,48.526a2.73,2.73,0,0,1,.962,1.148,3.925,3.925,0,0,1,.348,1.688,3.839,3.839,0,0,1-.343,1.67,2.524,2.524,0,0,1-2.376,1.5,2.458,2.458,0,0,1-1.2-.288,1.972,1.972,0,0,1-.8-.8v3.621h-1.513V50.02a13.766,13.766,0,0,0-.1-1.743H240.4l.121,1.06a1.859,1.859,0,0,1,.792-.895,2.446,2.446,0,0,1,1.269-.325A2.5,2.5,0,0,1,243.992,48.526Zm-.64,4.3a2.277,2.277,0,0,0,.414-1.461,2.438,2.438,0,0,0-.414-1.507,1.391,1.391,0,0,0-1.171-.543,1.44,1.44,0,0,0-1.2.524,2.378,2.378,0,0,0-.414,1.5,2.328,2.328,0,0,0,.414,1.481,1.615,1.615,0,0,0,2.367.005Z" transform="translate(-108.108 -45.461)"/><path class="b" d="M247.121,48.223l-.013,1.388a2.14,2.14,0,0,0-.8-.158,1.521,1.521,0,0,0-1.188.451,1.708,1.708,0,0,0-.409,1.2v3.327h-1.513V50.014a13.771,13.771,0,0,0-.1-1.743h1.428l.121,1.085a1.818,1.818,0,0,1,.732-.915,2.078,2.078,0,0,1,1.135-.317A1.687,1.687,0,0,1,247.121,48.223Z" transform="translate(-104.673 -45.455)"/><path class="b" d="M251.235,51.435h-4.242a2.223,2.223,0,0,0,.493,1.456,1.737,1.737,0,0,0,1.324.469,3.046,3.046,0,0,0,1.877-.658l.438,1.049a3.392,3.392,0,0,1-1.078.566,4.115,4.115,0,0,1-1.3.214,3.24,3.24,0,0,1-2.378-.854,3.136,3.136,0,0,1-.867-2.341,3.576,3.576,0,0,1,.379-1.67,2.793,2.793,0,0,1,1.06-1.14,2.967,2.967,0,0,1,1.549-.409,2.559,2.559,0,0,1,2.006.823,3.273,3.273,0,0,1,.737,2.262Zm-3.7-1.861a1.774,1.774,0,0,0-.493,1.043h2.865a1.7,1.7,0,0,0-.42-1.049,1.283,1.283,0,0,0-.959-.354A1.4,1.4,0,0,0,247.534,49.574Z" transform="translate(-102.667 -45.461)"/><path class="b" d="M255.109,50.654v3.778h-1.523V50.728a1.652,1.652,0,0,0-.281-1.067,1.064,1.064,0,0,0-.865-.335,1.487,1.487,0,0,0-1.122.444,1.632,1.632,0,0,0-.427,1.177v3.487H249.38V50.02a13.74,13.74,0,0,0-.1-1.743h1.428l.108,1.012a2.246,2.246,0,0,1,.86-.867,2.471,2.471,0,0,1,1.225-.3Q255.11,48.117,255.109,50.654Z" transform="translate(-99.52 -45.461)"/><path class="b" d="M258.888,51.435h-4.242a2.222,2.222,0,0,0,.493,1.456,1.74,1.74,0,0,0,1.324.469,3.043,3.043,0,0,0,1.877-.658l.438,1.049a3.373,3.373,0,0,1-1.078.566,4.116,4.116,0,0,1-1.3.214,3.24,3.24,0,0,1-2.378-.854,3.135,3.135,0,0,1-.865-2.341,3.575,3.575,0,0,1,.378-1.67,2.792,2.792,0,0,1,1.06-1.14,2.972,2.972,0,0,1,1.549-.409,2.559,2.559,0,0,1,2.006.823,3.273,3.273,0,0,1,.737,2.262Zm-3.7-1.861a1.763,1.763,0,0,0-.493,1.043h2.865a1.71,1.71,0,0,0-.422-1.049,1.278,1.278,0,0,0-.957-.354A1.4,1.4,0,0,0,255.188,49.574Z" transform="translate(-96.288 -45.461)"/><path class="b" d="M262.614,48.2V54.36h-1.487v-.95a2.006,2.006,0,0,1-.781.779,2.278,2.278,0,0,1-1.122.269q-2.255,0-2.255-2.537V48.2h1.512v3.731a1.486,1.486,0,0,0,.273.988,1.063,1.063,0,0,0,.847.315,1.387,1.387,0,0,0,1.074-.438,1.663,1.663,0,0,0,.4-1.17V48.2Z" transform="translate(-93.113 -45.388)"/><path class="b" d="M264.923,48.223l-.013,1.388a2.14,2.14,0,0,0-.8-.158,1.518,1.518,0,0,0-1.188.451,1.708,1.708,0,0,0-.409,1.2v3.327H261V50.014a13.759,13.759,0,0,0-.1-1.743h1.426l.123,1.085a1.819,1.819,0,0,1,.731-.915,2.068,2.068,0,0,1,1.133-.317A1.691,1.691,0,0,1,264.923,48.223Z" transform="translate(-89.839 -45.455)"/><path class="b" d="M263.506,46.681H265.2v1.5h-1.694Zm.1,8.948V49.473h1.512v6.156Z" transform="translate(-87.666 -46.657)"/><path class="b" d="M271.339,48.277v6.156h-1.5v-.986a1.972,1.972,0,0,1-.8.8,2.451,2.451,0,0,1-1.193.288,2.629,2.629,0,0,1-1.428-.39,2.581,2.581,0,0,1-.963-1.109,3.865,3.865,0,0,1-.341-1.67,3.924,3.924,0,0,1,.346-1.688,2.733,2.733,0,0,1,.97-1.148,2.526,2.526,0,0,1,1.415-.409,2.451,2.451,0,0,1,1.193.288,1.972,1.972,0,0,1,.8.8v-.926Zm-1.914,4.536a2.325,2.325,0,0,0,.414-1.476,2.367,2.367,0,0,0-.414-1.5,1.424,1.424,0,0,0-1.182-.524,1.406,1.406,0,0,0-1.177.543,2.4,2.4,0,0,0-.42,1.507,2.246,2.246,0,0,0,.42,1.461,1.452,1.452,0,0,0,1.19.513A1.408,1.408,0,0,0,269.425,52.812Z" transform="translate(-86.33 -45.461)"/><path class="b" d="M269.411,55.64V46.668h1.512V55.64Z" transform="translate(-82.746 -46.668)"/><path class="b" d="M273.029,55.508V46.827H274.6v8.681Z" transform="translate(-79.731 -46.536)"/><path class="b" d="M280.626,50.654v3.778H279.1V50.728a1.663,1.663,0,0,0-.28-1.067,1.064,1.064,0,0,0-.865-.335,1.487,1.487,0,0,0-1.122.444,1.632,1.632,0,0,0-.427,1.177v3.487H274.9V50.02a13.758,13.758,0,0,0-.1-1.743h1.426l.11,1.012a2.234,2.234,0,0,1,.86-.867,2.471,2.471,0,0,1,1.225-.3Q280.627,48.117,280.626,50.654Z" transform="translate(-78.257 -45.461)"/><path class="b" d="M284.9,46.668V55.64h-1.5v-.986a1.979,1.979,0,0,1-.8.8,2.458,2.458,0,0,1-1.2.288,2.549,2.549,0,0,1-1.414-.4,2.666,2.666,0,0,1-.97-1.14,4.263,4.263,0,0,1-.007-3.359,2.559,2.559,0,0,1,2.391-1.512,2.478,2.478,0,0,1,1.177.275,1.943,1.943,0,0,1,.8.774V46.668Zm-1.919,7.351a2.862,2.862,0,0,0,.005-2.975,1.406,1.406,0,0,0-1.17-.524,1.446,1.446,0,0,0-1.188.519,2.267,2.267,0,0,0-.422,1.468,2.365,2.365,0,0,0,.422,1.5,1.408,1.408,0,0,0,1.175.537A1.428,1.428,0,0,0,282.985,54.019Z" transform="translate(-75.026 -46.668)"/><path class="b" d="M282.924,46.681h1.7v1.5h-1.7Zm.1,8.948V49.473h1.511v6.156Z" transform="translate(-71.485 -46.657)"/><path class="b" d="M290.757,48.277v6.156h-1.5v-.986a2,2,0,0,1-.8.8,2.458,2.458,0,0,1-1.2.288,2.622,2.622,0,0,1-1.426-.39,2.6,2.6,0,0,1-.964-1.109,4.263,4.263,0,0,1,.007-3.359,2.719,2.719,0,0,1,.97-1.148,2.524,2.524,0,0,1,1.413-.409,2.458,2.458,0,0,1,1.2.288,2,2,0,0,1,.8.8v-.926Zm-1.914,4.536a2.325,2.325,0,0,0,.416-1.476,2.367,2.367,0,0,0-.416-1.5,1.419,1.419,0,0,0-1.182-.524,1.4,1.4,0,0,0-1.175.543,2.4,2.4,0,0,0-.422,1.507,2.246,2.246,0,0,0,.422,1.461,1.448,1.448,0,0,0,1.188.513A1.406,1.406,0,0,0,288.843,52.812Z" transform="translate(-70.15 -45.461)"/></g></g></svg>