<svg xmlns="http://www.w3.org/2000/svg" width="42.727" height="52" viewBox="0 0 42.727 52"><defs><style>.a{fill:#424242;stroke:#424242;}</style></defs><g transform="translate(-50.5 0.5)"><g transform="translate(51)"><path class="a" d="M88.091,4.636H78.355a6.862,6.862,0,0,0-12.982,0H55.636A4.65,4.65,0,0,0,51,9.273V46.364A4.65,4.65,0,0,0,55.636,51H88.091a4.65,4.65,0,0,0,4.636-4.636V9.273A4.65,4.65,0,0,0,88.091,4.636Zm-16.227,0a2.19,2.19,0,0,1,2.318,2.318,2.318,2.318,0,1,1-4.636,0A2.19,2.19,0,0,1,71.864,4.636ZM88.091,46.364H55.636V9.273h4.636v6.955H83.455V9.273h4.636Z" transform="translate(-51)"/></g></g></svg>