<svg xmlns="http://www.w3.org/2000/svg" width="45.031" height="46.999" viewBox="0 0 45.031 46.999"><defs><style>.a{fill:#0961ad;}</style></defs><g transform="translate(-0.985)"><path class="a" d="M6.12,38.52V5.136H33.082V33.173l5.137-4.243V2.568A2.567,2.567,0,0,0,35.652,0H3.552A2.567,2.567,0,0,0,.985,2.568V41.087a2.567,2.567,0,0,0,2.567,2.568H25.96L22.33,38.52Z"/><path class="a" d="M45.613,27.609a1.284,1.284,0,0,0-1.7-.057L32.137,37.286l-7.849-4.709a1.284,1.284,0,0,0-1.709,1.842l8.506,12.037A1.286,1.286,0,0,0,32.122,47h.012a1.279,1.279,0,0,0,1.035-.525L45.769,29.3A1.287,1.287,0,0,0,45.613,27.609Z"/><path class="a" d="M27.306,8.988H11.9a2.568,2.568,0,0,0,0,5.136H27.305a2.568,2.568,0,0,0,0-5.136Z"/><path class="a" d="M27.306,16.691H11.9a2.568,2.568,0,0,0,0,5.136H27.305a2.568,2.568,0,0,0,0-5.136Z"/><path class="a" d="M27.306,24.4H11.9a2.568,2.568,0,0,0,0,5.136H27.305a2.568,2.568,0,0,0,0-5.136Z"/></g></svg>
