<svg xmlns="http://www.w3.org/2000/svg" width="60.846" height="49.852" viewBox="0 0 60.846 49.852"><defs><style>.a{fill:#0961ad;stroke:#0961ad;}</style></defs><path class="a" d="M321.986-488.248v-2.092c.041-.167.1-.332.122-.5a10.291,10.291,0,0,1,8.378-8.679,39.618,39.618,0,0,1,5.326-.227.555.555,0,0,0,.616-.434,6.874,6.874,0,0,1,6.64-4.8c5.772-.033,11.544-.021,17.316,0a6.924,6.924,0,0,1,4.975,2.03,7.192,7.192,0,0,1,1.828,3.092,44.547,44.547,0,0,0,4.859-.031,6.91,6.91,0,0,0,5.955-6.4,6.829,6.829,0,0,0-5.26-7.136,40.524,40.524,0,0,0-5.457-.388c-.106.272-.164.413-.216.557a6.911,6.911,0,0,1-6.667,4.771q-8.658.044-17.316,0a6.667,6.667,0,0,1-5.631-2.845,21.767,21.767,0,0,1-1.3-2.352,2.144,2.144,0,0,0-2.144.641q-2.556,1.916-5.112,3.833c-.163.122-.336.232-.526.363l-2.074-2.767,2.63-1.986-.044-.109h-6.892v-3.487h6.884l.041-.115-2.622-1.983,2.092-2.782c1.917,1.437,3.806,2.791,5.617,4.242a2.679,2.679,0,0,0,2.268.6c.049-.128.107-.269.158-.413a6.919,6.919,0,0,1,6.665-4.771q8.655-.044,17.309,0a6.648,6.648,0,0,1,5.632,2.838,22.912,22.912,0,0,1,1.326,2.4c1.3,0,2.721-.087,4.126.016a10.263,10.263,0,0,1,8.908,5.87,21.762,21.762,0,0,1,1.11,3.516v2.092a1.852,1.852,0,0,0-.1.328,10.6,10.6,0,0,1-10.734,9.094c-1.141-.018-2.283,0-3.427,0-.061.152-.114.276-.159.4a6.944,6.944,0,0,1-6.752,4.82c-5.715.019-11.43.027-17.145-.017a8,8,0,0,1-2.713-.51,6.679,6.679,0,0,1-4.059-4.273c-.057-.164-.243-.406-.369-.406a38.489,38.489,0,0,0-4.639.1,6.872,6.872,0,0,0-5.912,6.429,6.794,6.794,0,0,0,5.259,7.13,39.894,39.894,0,0,0,5.444.367c.1-.23.163-.33.2-.439a7.11,7.11,0,0,1,6.994-4.9c5.6.045,11.2.008,16.8.014a6.951,6.951,0,0,1,6.884,4.8.544.544,0,0,0,.61.44c1.724-.018,3.449-.006,5.173-.008a4.04,4.04,0,0,0,.45-.06l-2.717-2.034,2.087-2.791,8.835,6.632-8.836,6.628-2.081-2.794,2.648-1.983c-1.9-.108-3.743-.108-5.581-.107-.135,0-.269.011-.407.017a1.967,1.967,0,0,0-.129.269,7.119,7.119,0,0,1-7.071,4.958c-5.6-.049-11.2-.006-16.8-.017a6.922,6.922,0,0,1-6.817-4.8.541.541,0,0,0-.615-.434c-1.259.017-2.519.036-3.777-.007a10.383,10.383,0,0,1-9.375-6.832C322.363-486.509,322.207-487.39,321.986-488.248Zm29.773-30.69c-2.867,0-5.734-.017-8.6,0a3.473,3.473,0,0,0-3.395,4.664,3.5,3.5,0,0,0,3.481,2.3q5.027.01,10.054,0c2.344,0,4.688.01,7.032,0a3.479,3.479,0,0,0,3.386-2.275,3.469,3.469,0,0,0-3.357-4.69C357.493-518.959,354.626-518.938,351.759-518.938Zm-.016,24.412q4.243,0,8.485,0a3.516,3.516,0,0,0,2.805-1.161,3.306,3.306,0,0,0,.616-3.68,3.342,3.342,0,0,0-3.247-2.127c-2.072-.03-4.145-.007-6.218-.007q-5.463,0-10.926,0a3.505,3.505,0,0,0-3.492,2.291,3.468,3.468,0,0,0,3.376,4.676C346.009-494.507,348.876-494.526,351.743-494.526Zm0,10.463c-2.848,0-5.7-.007-8.543,0a3.485,3.485,0,0,0-3.434,2.289,3.469,3.469,0,0,0,3.375,4.677c2.344.025,4.688.006,7.032.006,3.37,0,6.741.006,10.112,0a3.491,3.491,0,0,0,3.432-2.293,3.463,3.463,0,0,0-3.373-4.673C357.477-484.081,354.61-484.062,351.743-484.062Z" transform="translate(-321.486 522.938)"/></svg>
