<svg xmlns="http://www.w3.org/2000/svg" width="42.208" height="64.935" viewBox="0 0 42.208 64.935"><defs><style>.a{fill:#0961ad;stroke:#0961ad;}</style></defs><g transform="translate(0.5 0.5)"><path class="a" d="M92.873,14.985a1.873,1.873,0,0,0,1.873-1.873,9.366,9.366,0,0,1,18.731,0,1.873,1.873,0,0,0,3.746,0,13.112,13.112,0,0,0-26.224,0A1.873,1.873,0,0,0,92.873,14.985Z" transform="translate(-91)"/><path class="a" d="M99.528,116.245a1.874,1.874,0,0,0,.838.2h26.224a1.873,1.873,0,0,0,1.325-.549,14.567,14.567,0,0,0,4.295-10.369V88.346a5.616,5.616,0,0,0-7.69-5.222,5.614,5.614,0,0,0-7.492-3.746,5.616,5.616,0,0,0-7.294-3.821V65.619a5.619,5.619,0,0,0-11.239,0V86.473H96.619A5.626,5.626,0,0,0,91,92.093v10.354a15.428,15.428,0,0,0,8.528,13.8ZM94.746,92.093a1.875,1.875,0,0,1,1.873-1.873h1.873v8.053a1.873,1.873,0,1,0,3.746,0V65.619a1.873,1.873,0,1,1,3.746,0V92.093a1.873,1.873,0,1,0,3.746,0V80.854a1.873,1.873,0,0,1,3.746,0V92.093a1.873,1.873,0,1,0,3.746,0V84.6a1.873,1.873,0,1,1,3.746,0v7.492a1.873,1.873,0,1,0,3.746,0V88.346a1.873,1.873,0,0,1,3.746,0v17.179a10.837,10.837,0,0,1-2.685,7.171H100.825a11.612,11.612,0,0,1-6.078-10.25Z" transform="translate(-91 -52.508)"/></g></svg>
