<svg xmlns="http://www.w3.org/2000/svg" width="67" height="68" viewBox="0 0 67 68"><defs><style>.a{fill:#d6e9fd;}.b{fill:#125ead;}</style></defs><ellipse class="a" cx="33.5" cy="34" rx="33.5" ry="34"/><g transform="translate(-630.865 -334.604)"><path class="b" d="M683.937,365.887c-.126.73-.2,1.474-.387,2.188a11.374,11.374,0,0,1-6.139,7.565,11.069,11.069,0,0,1-5.183,1.166c-4.569-.041-9.138-.013-13.707-.013h-.477v7.735l-12.882-10.306,12.857-10.281v7.708h.48c4.7,0,9.391-.022,14.086.015a5.351,5.351,0,0,0,3.349-1.078,6.6,6.6,0,0,0-2.211-11.777,1.865,1.865,0,0,0-.486-.051q-2.234,0-4.468,0h-.394v-5.126c.144-.007.277-.018.411-.018,1.2,0,2.4.022,3.6-.006a10.837,10.837,0,0,1,6.985,2.374,11.365,11.365,0,0,1,4.372,7.16c.081.432.132.87.2,1.305Z"/></g></svg>