<svg xmlns="http://www.w3.org/2000/svg" xmlns:xlink="http://www.w3.org/1999/xlink" width="37.757" height="37.757" viewBox="0 0 37.757 37.757"><defs><style>.a{fill:none;}.b{clip-path:url(#a);}.c{fill:#c11313;}.d{fill:#fff;}</style><clipPath id="a"><rect class="a" width="37.757" height="37.757"/></clipPath></defs><g class="b"><path class="c" d="M18.879,0A18.879,18.879,0,1,1,0,18.879,18.879,18.879,0,0,1,18.879,0Z"/><g transform="translate(-127.629 -1458.431)"><g transform="translate(138.055 1469.431)"><path class="d" d="M152.1,1485.532a1.979,1.979,0,0,1-1.4-.6l-12.039-12.039a2.022,2.022,0,1,1,2.86-2.859l12.039,12.038a2,2,0,0,1,0,2.859A2.093,2.093,0,0,1,152.1,1485.532Z" transform="translate(-138.055 -1469.431)"/></g><g transform="translate(138.055 1469.431)"><path class="d" d="M140.062,1485.532a2.032,2.032,0,0,1-1.405-3.461l12.039-12.038a2.022,2.022,0,0,1,2.86,2.859l-12.039,12.039A2.183,2.183,0,0,1,140.062,1485.532Z" transform="translate(-138.055 -1469.431)"/></g></g></g></svg>