<svg xmlns="http://www.w3.org/2000/svg" xmlns:xlink="http://www.w3.org/1999/xlink" width="19.445" height="22.859" viewBox="0 0 19.445 22.859"><defs><style>.a{fill:none;}.b{clip-path:url(#a);}.c{fill:#fff;}</style><clipPath id="a"><rect class="a" width="19.445" height="22.859"/></clipPath></defs><g class="b"><path class="c" d="M41.616,8.054a5,5,0,0,1-.837,2.908c-1.235,1.833-2.47,3.665-3.705,5.538-.239.359-.438.359-.677-.04-1.2-1.793-2.43-3.586-3.625-5.378a4.784,4.784,0,0,1,1.315-6.932,4.7,4.7,0,0,1,4.94-.239A4.769,4.769,0,0,1,41.616,8.054Zm-4.9-2.59a2.689,2.689,0,1,0,.04,5.378,2.689,2.689,0,0,0-.04-5.378Z" transform="translate(-22.175 -3.321)"/><g transform="translate(0 3.856)"><path class="c" d="M30.59,37.029,24.016,34.2,23.1,38.782l7.49,3.107Z" transform="translate(-16.925 -25.754)"/><path class="c" d="M12.978,28.751,7.6,26.4v5.139l4.462,1.833Z" transform="translate(-7.6 -21.062)"/><path class="c" d="M46.4,43.3v4.821l3.147,1.315a2.041,2.041,0,0,0,.359-1.076V44.854Z" transform="translate(-30.942 -31.229)"/><path class="c" d="M11.664,46.473,7.6,44.8v4.462a1.87,1.87,0,0,0,1.872,1.872h1.275Z" transform="translate(-7.6 -32.131)"/><path class="c" d="M31.1,23.071c-.837-1.235-1.713-2.51-2.55-3.785A6.462,6.462,0,0,1,27.436,15.9L26.4,21.039Z" transform="translate(-18.91 -14.745)"/><path class="c" d="M13.417,18.578,14.532,13H9.472A1.87,1.87,0,0,0,7.6,14.872v1.155Z" transform="translate(-7.6 -13)"/><path class="c" d="M47.958,30.085l-.558.837,3.107,1.355V26.3C49.671,27.575,48.794,28.85,47.958,30.085Z" transform="translate(-31.544 -21.001)"/><path class="c" d="M30.379,54.7,20.9,50.8l-.8,3.9Z" transform="translate(-15.12 -35.741)"/></g></g></svg>