<svg xmlns="http://www.w3.org/2000/svg" width="32.681" height="32.681" viewBox="0 0 32.681 32.681"><defs><style>.a{fill:#424242;}</style></defs><path class="a" d="M32.681,16.341a16.554,16.554,0,0,1-.1,1.853,1.278,1.278,0,0,1-2.171.759l-3.515-3.515A1.277,1.277,0,0,1,28.7,13.633L30.064,15a13.784,13.784,0,1,0-1.609,7.928A1.277,1.277,0,1,1,30.7,24.15a16.345,16.345,0,1,1,1.984-7.81ZM16.341,5.106a1.277,1.277,0,0,0-1.277,1.277v9.958a1.276,1.276,0,0,0,.374.9l5.281,5.281a1.277,1.277,0,0,0,1.805-1.805l-4.907-4.907V6.383a1.277,1.277,0,0,0-1.277-1.277Z"/></svg>