<svg xmlns="http://www.w3.org/2000/svg" width="23.125" height="27.567" viewBox="0 0 23.125 27.567"><defs><style>.a{fill:#fff;}</style></defs><g transform="translate(-3.001 -0.217)"><path class="a" d="M9.223,10.16a3.055,3.055,0,0,0,1.841,2.4c1.03,2.174,2.775,3.882,4.757,3.882s3.729-1.708,4.759-3.882a3.057,3.057,0,0,0,1.841-2.4,1.958,1.958,0,0,0-.7-1.533c.725-2.495,1.73-6.418-3.748-8.005C12.061-1.092,10.878,3.2,10.878,3.2c-.71-.137-1.478.551-1.654,2.62a5.3,5.3,0,0,0,.638,2.866A1.963,1.963,0,0,0,9.223,10.16Z" transform="translate(-1.257 0)"/><path class="a" d="M19.508,21.544,16.17,26.651l-.8-2.808a1.031,1.031,0,0,0,.349-.469L16,22.55a.508.508,0,0,0-.512-.711h-1.84a.509.509,0,0,0-.513.711l.276.825a1.022,1.022,0,0,0,.348.469l-.8,2.807L9.62,21.544S5.366,22.49,3,25.011c0,0,2.009,4.256,11.562,7.092,9.553-2.837,11.563-7.092,11.563-7.092C23.763,22.489,19.508,21.544,19.508,21.544Z" transform="translate(0 -4.318)"/></g></svg>