<svg xmlns="http://www.w3.org/2000/svg" xmlns:xlink="http://www.w3.org/1999/xlink" width="24.027" height="17.754" viewBox="0 0 24.027 17.754"><defs><style>.a{fill:none;}.b{clip-path:url(#a);}.c{fill:#fff;fill-rule:evenodd;}</style><clipPath id="a"><rect class="a" width="24.027" height="17.754"/></clipPath></defs><g class="b"><path class="c" d="M16.421,2.088a2.957,2.957,0,0,1,2.115.974l1.108,3.694a40.668,40.668,0,0,1-15.345,0L5.441,3.062a2.945,2.945,0,0,1,2.082-.974A43.78,43.78,0,0,1,16.421,2.088Zm1.343,13.263V17A1.01,1.01,0,0,0,18.771,18h2.955A1,1,0,0,0,22.7,17c0-2.485.034-4.97.034-7.454-.134-.3-.235-.638-.369-.94,2.653.235,1.914-2.418-1.108-2.183L19.913,2.592A3.528,3.528,0,0,0,17.193.577a41.533,41.533,0,0,0-10.409,0,3.528,3.528,0,0,0-2.72,2.015L2.687,6.42C-.3,6.185-1.073,8.838,1.613,8.6c-.134.3-.235.638-.369.94V17A1.033,1.033,0,0,0,2.251,18H5.206A1.033,1.033,0,0,0,6.213,17V15.352ZM3.09,11.423c0-.47.034-1.074.034-1.31.034-.705,1.175-.772,1.477-.6.034,0,2.183.94,3.257,1.444a.916.916,0,0,1-.034.974C5.81,12.363,3.9,12.464,3.09,11.423Zm17.8,0c0-.47-.067-1.074-.067-1.31,0-.705-1.142-.772-1.444-.6-.067,0-2.183.94-3.257,1.444a.921.921,0,0,0,0,.974C18.167,12.363,20.047,12.464,20.887,11.423Z" transform="translate(0.034 -0.25)"/></g></svg>