<svg xmlns="http://www.w3.org/2000/svg" xmlns:xlink="http://www.w3.org/1999/xlink" width="35.914" height="22.224" viewBox="0 0 35.914 22.224"><defs><style>.a{fill:none;}.b{clip-path:url(#a);}.c{fill:#fff;}</style><clipPath id="a"><rect class="a" width="35.914" height="22.224"/></clipPath></defs><g class="b"><path class="c" d="M961.084-85.263q-.008,2.3-.015,4.605c0,.465.006.93,0,1.395,0,.176.04.252.232.243a1.371,1.371,0,0,1,1.43,1.513c-.042,1.155,0,2.314-.015,3.471,0,.223.058.3.288.3.579,0,.616.045.616.635,0,.465,0,.93,0,1.395,0,.352-.11.457-.469.46s-.692.008-1.038,0c-.168,0-.244.023-.25.222-.026.945-.42,1.315-1.37,1.317-.184,0-.368.007-.551,0a1.089,1.089,0,0,1-1.129-1.188c.006-.3-.083-.352-.361-.351q-4.185.016-8.37,0c-.269,0-.342.07-.339.339a1.094,1.094,0,0,1-1.151,1.2,6.165,6.165,0,0,1-.842-.011,1.078,1.078,0,0,1-1.055-1.161c.007-.3-.075-.391-.371-.367-.322.027-.648.005-.973.006a.366.366,0,0,1-.417-.417c0-.53,0-1.06,0-1.59,0-.385.092-.477.474-.49.425-.015.425-.015.425-.441,0-1.146,0-2.292,0-3.439a1.3,1.3,0,0,1,1.343-1.387c.273,0,.31-.1.309-.336q-.009-5.726,0-11.451c0-.648.094-.781.7-.991.749-.259.812-.214.812.582,0,1.188,0,2.377.032,3.588a2.531,2.531,0,0,1,2.069-1.936l5.738,0a2.338,2.338,0,0,1,2.578,1.756.334.334,0,0,0,.127.17c.005-.107.015-.215.015-.322q0-1.7,0-3.4c0-.576.12-.663.65-.479l.244.084c.49.17.616.341.617.855q0,2.642,0,5.285C961.069-85.5,961.079-85.382,961.084-85.263Zm-6.81,10.777c.714,0,1.427,0,2.141,0a.659.659,0,0,0,.756-.725q.013-2.011,0-4.022a.648.648,0,0,0-.724-.722q-2.173-.006-4.346,0a.643.643,0,0,0-.723.689q-.015,2.043,0,4.087a.645.645,0,0,0,.722.692C952.825-74.484,953.55-74.487,954.274-74.487Zm-.016-7.833c1.513,0,3.026-.007,4.539.006.272,0,.347-.078.338-.345-.02-.6,0-1.21-.007-1.815a.969.969,0,0,0-1.061-1.072q-3.794-.007-7.587,0a.969.969,0,0,0-1.06,1.072c0,.616.01,1.232-.007,1.848-.007.24.059.313.306.311C951.232-82.325,952.745-82.319,954.259-82.319ZM948.821-74.5c.291,0,.584.015.874-.006a.412.412,0,0,0,.417-.3.432.432,0,0,0-.231-.49,1.228,1.228,0,0,0-.137-.085,10.064,10.064,0,0,0-1.551-.644c-.933-.263-1.1.055-1.056.775.026.453.132.6.588.7A4.532,4.532,0,0,0,948.821-74.5Zm10.894.006v-.019a6.831,6.831,0,0,0,.9-.007c.7-.094.791-.22.787-.914,0-.584-.246-.789-.821-.651a8.279,8.279,0,0,0-1.881.766.433.433,0,0,0-.27.5c.056.245.262.307.471.32C959.175-74.482,959.445-74.5,959.715-74.5Z" transform="translate(-936.316 91.933)"/><path class="c" d="M1212.556,10.335a1.5,1.5,0,0,1-2.1-1c-.07-.32-.191-.368-.475-.365-1.373.014-2.746,0-4.118.013-.276,0-.336-.08-.335-.343a14.078,14.078,0,0,0-.034-2.04A1.9,1.9,0,0,0,1204.1,4.98c-.2-.066-.247-.149-.241-.336.011-.389.018-.779,0-1.167-.012-.238.077-.281.294-.28,2.335.007,4.67,0,7,.012.313,0,.369-.068.284-.364-.224-.777-.475-1.544-.763-2.3a.937.937,0,0,0-.657-.607,8.444,8.444,0,0,0-2.242-.288,21.564,21.564,0,0,0-3.657.12c-.191.028-.277-.006-.263-.225.018-.269,0-.54,0-.81a2.891,2.891,0,0,1,1.045-.154,20.691,20.691,0,0,1,4.719.149,4.111,4.111,0,0,1,1.239.459,1.492,1.492,0,0,1,.729.833c.322.9.658,1.8.977,2.708.071.2.16.3.39.28a6.819,6.819,0,0,1,.81,0,.576.576,0,0,1,.584.536.878.878,0,0,1-.829.957c-.1,0-.192,0-.271,0a26.264,26.264,0,0,1,.131,4.6A1.442,1.442,0,0,1,1212.556,10.335Zm-1.519-3.555c.164-.01.445-.013.723-.048.823-.1.891-.189.875-1.016-.009-.468-.171-.643-.637-.58a6.071,6.071,0,0,0-2.176.859.368.368,0,0,0-.173.421.4.4,0,0,0,.338.3A5.761,5.761,0,0,0,1211.037,6.78Z" transform="translate(-1178.443 7.354)"/><path class="c" d="M815.016,3.176h1.448c1.957,0,3.914.006,5.872-.007.272,0,.351.071.335.34-.024.388-.012.778,0,1.167,0,.156-.049.217-.2.266a2,2,0,0,0-1.469,1.983c-.01.573-.018,1.147,0,1.719.01.269-.085.316-.329.315-1.417-.011-2.833,0-4.25-.009-.205,0-.287.033-.321.267a1.491,1.491,0,0,1-2.957-.179c-.025-1.254-.009-2.509,0-3.763a2.1,2.1,0,0,1,.183-.749c-.1-.089-.215-.047-.316-.051a.883.883,0,0,1-.828-.961.578.578,0,0,1,.585-.537c.281-.01.563-.017.843,0,.2.013.282-.068.346-.248.315-.9.65-1.783.963-2.679a1.7,1.7,0,0,1,.9-.97,5.723,5.723,0,0,1,2.414-.545,23.567,23.567,0,0,1,4.209.094c.178.024.244.076.234.257-.015.269.09.611-.039.791-.155.218-.5.008-.754-.008a28.3,28.3,0,0,0-4.05.011,5.625,5.625,0,0,0-1.4.258.862.862,0,0,0-.558.539A18.262,18.262,0,0,0,815.016,3.176Zm.647,3.571a4.666,4.666,0,0,0,.851-.044.414.414,0,0,0,.368-.312.4.4,0,0,0-.224-.461,7.2,7.2,0,0,0-1.933-.795c-.639-.138-.827.04-.829.687a2.154,2.154,0,0,1,0,.226.5.5,0,0,0,.433.582A4.809,4.809,0,0,0,815.663,6.748Z" transform="translate(-812.171 7.379)"/></g></svg>